<svg width="30" height="35" viewBox="0 0 30 35" fill="none" xmlns="http://www.w3.org/2000/svg">
<g clip-path="url(#clip0)">
<path d="M23.4083 0L19.4227 9.65068H11.1741L14.8385 0H23.4083Z" fill="#341D68"/>
<path d="M19.8025 7.98682H10.8677C10.2838 7.98682 9.802 8.46429 9.802 9.04304V14.6859H20.8682V9.04304C20.8682 8.44982 20.3865 7.98682 19.8025 7.98682ZM20.0799 10.0559H10.386V9.62179C10.386 9.15879 10.7656 8.76813 11.2473 8.76813H19.2331C19.7003 8.76813 20.0945 9.14432 20.0945 9.62179V10.0559H20.0799Z" fill="#E29044"/>
<path d="M7.31982 0L11.174 9.65068H19.4226L15.6706 0H7.31982Z" fill="#5D2AD6"/>
<path d="M13.0867 9.65068L8.86752 0H8.38574L12.6049 9.65068H13.0867Z" fill="white"/>
<path d="M14.8677 9.65068L10.6485 0H10.1667L14.3859 9.65068H14.8677Z" fill="white"/>
<path d="M16.8385 9.65068L12.6193 0H12.1521L16.3713 9.65068H16.8385Z" fill="white"/>
<path d="M18.5906 9.65068L14.3714 0H13.8896L18.1088 9.65068H18.5906Z" fill="white"/>
<path d="M25.8333 28.4246C28.7973 22.5497 26.3945 15.4059 20.4667 12.4685C14.5388 9.53101 7.33059 11.9123 4.36667 17.7872C1.40274 23.662 3.80548 30.8058 9.73333 33.7433C15.6612 36.6807 22.8694 34.2994 25.8333 28.4246Z" fill="#FFC83C"/>
<path d="M24.7514 16.0315C25.9631 17.8835 26.6639 20.0972 26.6639 22.4701C26.6639 29.0389 21.2914 34.3634 14.6633 34.3634C10.7069 34.3634 7.20307 32.468 5.01318 29.5453C7.14468 32.8297 10.8675 35.0001 15.1013 35.0001C21.7293 35.0001 27.1019 29.6756 27.1019 23.1067C27.1019 20.4589 26.2259 18.0137 24.7514 16.0315Z" fill="#E39344"/>
<path d="M23.8485 27.4412C26.2644 22.6526 24.3059 16.8298 19.4742 14.4356C14.6425 12.0413 8.76719 13.9822 6.35134 18.7708C3.93549 23.5593 5.89392 29.3821 10.7256 31.7764C15.5573 34.1706 21.4327 32.2297 23.8485 27.4412Z" fill="#F6D845"/>
<path d="M13.9042 29.7043C14.2838 30.0081 14.386 30.5001 14.386 30.5001C14.386 30.5001 13.875 30.5145 13.4808 30.2107C13.1012 29.9068 12.999 29.4149 12.999 29.4149C12.999 29.4149 13.5246 29.4004 13.9042 29.7043Z" fill="#F8ED7D"/>
<path d="M13.437 30.4856C13.9042 30.3265 14.3859 30.5001 14.3859 30.5001C14.3859 30.5001 14.1232 30.9342 13.656 31.0933C13.1888 31.2525 12.707 31.0788 12.707 31.0788C12.707 31.0788 12.9844 30.6448 13.437 30.4856Z" fill="#F8ED7D"/>
<path d="M12.4151 29.2992C12.7509 29.6464 12.7801 30.1528 12.7801 30.1528C12.7801 30.1528 12.2691 30.095 11.9333 29.7477C11.5976 29.4005 11.5684 28.894 11.5684 28.894C11.5684 28.894 12.0793 28.9519 12.4151 29.2992Z" fill="#F8ED7D"/>
<path d="M11.8457 30.0081C12.3275 29.9068 12.78 30.1528 12.78 30.1528C12.78 30.1528 12.4589 30.5435 11.9771 30.6447C11.4953 30.746 11.0427 30.5 11.0427 30.5C11.0427 30.5 11.3639 30.1094 11.8457 30.0081Z" fill="#F8ED7D"/>
<path d="M11.2325 28.7348C11.5099 29.1255 11.4515 29.6319 11.4515 29.6319C11.4515 29.6319 10.9551 29.5017 10.6777 29.0965C10.4003 28.7059 10.4587 28.1995 10.4587 28.1995C10.4587 28.1995 10.9551 28.3297 11.2325 28.7348Z" fill="#F8ED7D"/>
<path d="M10.561 29.3423C11.0574 29.3278 11.4662 29.6317 11.4662 29.6317C11.4662 29.6317 11.0866 29.9789 10.5902 29.9934C10.0938 30.0079 9.68506 29.704 9.68506 29.704C9.68506 29.704 10.0646 29.3568 10.561 29.3423Z" fill="#F8ED7D"/>
<path d="M10.1376 27.8522C10.3128 28.3008 10.1376 28.7782 10.1376 28.7782C10.1376 28.7782 9.68499 28.5323 9.5244 28.0837C9.3492 27.6352 9.5244 27.1577 9.5244 27.1577C9.5244 27.1577 9.96237 27.4037 10.1376 27.8522Z" fill="#F8ED7D"/>
<path d="M9.33474 28.2862C9.81652 28.3875 10.1377 28.7781 10.1377 28.7781C10.1377 28.7781 9.68513 29.0241 9.20335 28.9228C8.72157 28.8215 8.40039 28.4309 8.40039 28.4309C8.40039 28.4309 8.85297 28.1849 9.33474 28.2862Z" fill="#F8ED7D"/>
<path d="M9.30551 26.8394C9.36391 27.3168 9.07192 27.7364 9.07192 27.7364C9.07192 27.7364 8.69234 27.3892 8.63394 26.9117C8.57555 26.4342 8.86753 26.0146 8.86753 26.0146C8.86753 26.0146 9.24711 26.3619 9.30551 26.8394Z" fill="#F8ED7D"/>
<path d="M8.41502 27.0711C8.85299 27.2736 9.07198 27.7366 9.07198 27.7366C9.07198 27.7366 8.57561 27.8669 8.12303 27.6643C7.68505 27.4617 7.46606 26.9987 7.46606 26.9987C7.46606 26.9987 7.97704 26.8685 8.41502 27.0711Z" fill="#F8ED7D"/>
<path d="M8.60477 25.5515C8.56097 26.029 8.19599 26.3907 8.19599 26.3907C8.19599 26.3907 7.90401 25.9711 7.9332 25.5081C7.977 25.0307 8.34199 24.6689 8.34199 24.6689C8.34199 24.6689 8.63397 25.0741 8.60477 25.5515Z" fill="#F8ED7D"/>
<path d="M7.68494 25.6094C8.07912 25.8988 8.19591 26.3907 8.19591 26.3907C8.19591 26.3907 7.68494 26.4196 7.29076 26.1303C6.89658 25.8409 6.77979 25.3489 6.77979 25.3489C6.77979 25.3489 7.29076 25.32 7.68494 25.6094Z" fill="#F8ED7D"/>
<path d="M8.23972 24.3363C8.12292 24.7993 7.69955 25.1032 7.69955 25.1032C7.69955 25.1032 7.46596 24.6547 7.58275 24.1917C7.69955 23.7286 8.12292 23.4248 8.12292 23.4248C8.12292 23.4248 8.35651 23.8733 8.23972 24.3363Z" fill="#F8ED7D"/>
<path d="M7.31985 24.2493C7.65564 24.5966 7.69943 25.103 7.69943 25.103C7.69943 25.103 7.18846 25.0451 6.83808 24.7123C6.50229 24.3651 6.4585 23.8586 6.4585 23.8586C6.4585 23.8586 6.96947 23.9021 7.31985 24.2493Z" fill="#F8ED7D"/>
<path d="M8.19597 22.9762C7.96238 23.3958 7.4806 23.5839 7.4806 23.5839C7.4806 23.5839 7.37841 23.092 7.5974 22.6724C7.83099 22.2528 8.31276 22.0647 8.31276 22.0647C8.31276 22.0647 8.42956 22.5566 8.19597 22.9762Z" fill="#F8ED7D"/>
<path d="M7.31967 22.6725C7.56786 23.0921 7.48026 23.584 7.48026 23.584C7.48026 23.584 6.99849 23.4104 6.7503 23.0053C6.50211 22.5857 6.58971 22.0938 6.58971 22.0938C6.58971 22.0938 7.08608 22.2674 7.31967 22.6725Z" fill="#F8ED7D"/>
<path d="M8.44422 21.6015C8.12304 21.9632 7.61206 22.0356 7.61206 22.0356C7.61206 22.0356 7.62666 21.5292 7.94784 21.1675C8.26903 20.8057 8.78 20.7334 8.78 20.7334C8.78 20.7334 8.7654 21.2398 8.44422 21.6015Z" fill="#F8ED7D"/>
<path d="M7.67033 21.1097C7.81633 21.5727 7.59734 22.0357 7.59734 22.0357C7.59734 22.0357 7.15936 21.7608 7.02797 21.2978C6.88198 20.8348 7.10096 20.3718 7.10096 20.3718C7.10096 20.3718 7.52434 20.6612 7.67033 21.1097Z" fill="#F8ED7D"/>
<path d="M8.94051 20.4732C8.54633 20.7481 8.02075 20.7047 8.02075 20.7047C8.02075 20.7047 8.15215 20.2128 8.54633 19.9379C8.94051 19.663 9.46608 19.7064 9.46608 19.7064C9.46608 19.7064 9.33469 20.1983 8.94051 20.4732Z" fill="#F8ED7D"/>
<path d="M8.29809 19.8221C8.32729 20.2996 8.0207 20.7047 8.0207 20.7047C8.0207 20.7047 7.67032 20.343 7.64112 19.8655C7.61192 19.388 7.91851 18.9829 7.91851 18.9829C7.91851 18.9829 8.26889 19.3446 8.29809 19.8221Z" fill="#F8ED7D"/>
<path d="M9.56809 19.4461C9.13011 19.6631 8.61914 19.5329 8.61914 19.5329C8.61914 19.5329 8.82353 19.0699 9.26151 18.8529C9.69949 18.6358 10.2105 18.766 10.2105 18.766C10.2105 18.766 10.0061 19.2435 9.56809 19.4461Z" fill="#F8ED7D"/>
<path d="M9.04274 18.7081C8.99894 19.1856 8.61936 19.5328 8.61936 19.5328C8.61936 19.5328 8.32738 19.1132 8.37118 18.6358C8.41497 18.1583 8.79455 17.811 8.79455 17.811C8.79455 17.811 9.08654 18.2451 9.04274 18.7081Z" fill="#F8ED7D"/>
<path d="M16.5614 29.6464C16.1818 29.9503 16.0796 30.4422 16.0796 30.4422C16.0796 30.4422 16.5906 30.4567 16.9847 30.1528C17.3643 29.849 17.4665 29.357 17.4665 29.357C17.4665 29.357 16.9409 29.3426 16.5614 29.6464Z" fill="#F8ED7D"/>
<path d="M17.0285 30.4134C16.5614 30.2542 16.0796 30.4278 16.0796 30.4278C16.0796 30.4278 16.3424 30.8619 16.8096 31.0211C17.2767 31.1802 17.7585 31.0066 17.7585 31.0066C17.7585 31.0066 17.4811 30.5725 17.0285 30.4134Z" fill="#F8ED7D"/>
<path d="M17.8606 29.2992C17.5248 29.6464 17.4956 30.1528 17.4956 30.1528C17.4956 30.1528 18.0066 30.095 18.3424 29.7477C18.6781 29.4005 18.7073 28.894 18.7073 28.894C18.7073 28.894 18.1964 28.9519 17.8606 29.2992Z" fill="#F8ED7D"/>
<path d="M18.43 30.0083C17.9482 29.9071 17.4956 30.153 17.4956 30.153C17.4956 30.153 17.8168 30.5437 18.2986 30.645C18.7803 30.7463 19.2329 30.5003 19.2329 30.5003C19.2329 30.5003 18.9117 30.1096 18.43 30.0083Z" fill="#F8ED7D"/>
<path d="M19.043 28.6772C18.7656 29.0678 18.824 29.5743 18.824 29.5743C18.824 29.5743 19.3203 29.444 19.5977 29.0389C19.8751 28.6483 19.8167 28.1418 19.8167 28.1418C19.8167 28.1418 19.3203 28.2865 19.043 28.6772Z" fill="#F8ED7D"/>
<path d="M19.7147 29.2847C19.2184 29.2702 18.8096 29.5741 18.8096 29.5741C18.8096 29.5741 19.1892 29.9213 19.6855 29.9358C20.1819 29.9502 20.5907 29.6464 20.5907 29.6464C20.5907 29.6464 20.1965 29.3136 19.7147 29.2847Z" fill="#F8ED7D"/>
<path d="M20.0942 27.8234C19.919 28.2719 20.0942 28.7494 20.0942 28.7494C20.0942 28.7494 20.5468 28.5034 20.7074 28.0549C20.8826 27.6064 20.7074 27.1289 20.7074 27.1289C20.7074 27.1289 20.2694 27.3749 20.0942 27.8234Z" fill="#F8ED7D"/>
<path d="M20.9121 28.2576C20.4303 28.3589 20.1091 28.7496 20.1091 28.7496C20.1091 28.7496 20.5617 28.9955 21.0435 28.8942C21.5253 28.793 21.8464 28.4023 21.8464 28.4023C21.8464 28.4023 21.3793 28.1563 20.9121 28.2576Z" fill="#F8ED7D"/>
<path d="M20.9704 26.7383C20.912 27.2158 21.204 27.6354 21.204 27.6354C21.204 27.6354 21.5835 27.2881 21.6419 26.8106C21.7003 26.3332 21.4083 25.9136 21.4083 25.9136C21.4083 25.9136 21.0288 26.2608 20.9704 26.7383Z" fill="#F8ED7D"/>
<path d="M21.8608 26.9697C21.4228 27.1723 21.2039 27.6353 21.2039 27.6353C21.2039 27.6353 21.7002 27.7655 22.1528 27.563C22.5908 27.3604 22.8098 26.8974 22.8098 26.8974C22.8098 26.8974 22.2988 26.7672 21.8608 26.9697Z" fill="#F8ED7D"/>
<path d="M21.5983 25.5374C21.6421 26.0149 22.0071 26.3766 22.0071 26.3766C22.0071 26.3766 22.299 25.957 22.2698 25.494C22.226 25.0165 21.8611 24.6548 21.8611 24.6548C21.8611 24.6548 21.5545 25.0599 21.5983 25.5374Z" fill="#F8ED7D"/>
<path d="M22.5178 25.5809C22.1236 25.8703 22.0068 26.3622 22.0068 26.3622C22.0068 26.3622 22.5178 26.3911 22.912 26.1018C23.3062 25.8124 23.423 25.3204 23.423 25.3204C23.423 25.3204 22.912 25.306 22.5178 25.5809Z" fill="#F8ED7D"/>
<path d="M21.9631 24.3075C22.0799 24.7705 22.5033 25.0744 22.5033 25.0744C22.5033 25.0744 22.7369 24.6258 22.6201 24.1628C22.5033 23.6998 22.0799 23.396 22.0799 23.396C22.0799 23.396 21.8463 23.8445 21.9631 24.3075Z" fill="#F8ED7D"/>
<path d="M22.883 24.2207C22.5472 24.568 22.5034 25.0744 22.5034 25.0744C22.5034 25.0744 23.0144 25.0165 23.3648 24.6837C23.7006 24.3365 23.7444 23.8301 23.7444 23.8301C23.7444 23.8301 23.2188 23.8735 22.883 24.2207Z" fill="#F8ED7D"/>
<path d="M22.0068 22.9909C22.2404 23.4105 22.7222 23.5986 22.7222 23.5986C22.7222 23.5986 22.8244 23.1066 22.6054 22.687C22.3718 22.2674 21.89 22.0793 21.89 22.0793C21.89 22.0793 21.7732 22.5713 22.0068 22.9909Z" fill="#F8ED7D"/>
<path d="M22.8682 22.7016C22.62 23.1211 22.7076 23.6131 22.7076 23.6131C22.7076 23.6131 23.1894 23.4395 23.4376 23.0343C23.6858 22.6147 23.5982 22.1228 23.5982 22.1228C23.5982 22.1228 23.1164 22.282 22.8682 22.7016Z" fill="#F8ED7D"/>
<path d="M21.7442 21.6162C22.0654 21.9779 22.5764 22.0502 22.5764 22.0502C22.5764 22.0502 22.5618 21.5438 22.2406 21.1821C21.9194 20.8204 21.4084 20.748 21.4084 20.748C21.4084 20.748 21.423 21.2689 21.7442 21.6162Z" fill="#F8ED7D"/>
<path d="M22.5177 21.1244C22.3717 21.5874 22.5907 22.0504 22.5907 22.0504C22.5907 22.0504 23.0287 21.7755 23.1601 21.3125C23.3061 20.8495 23.0871 20.3865 23.0871 20.3865C23.0871 20.3865 22.6491 20.6759 22.5177 21.1244Z" fill="#F8ED7D"/>
<path d="M21.2621 20.5167C21.6563 20.7916 22.1819 20.7482 22.1819 20.7482C22.1819 20.7482 22.0505 20.2562 21.6563 19.9813C21.2621 19.7064 20.7366 19.7498 20.7366 19.7498C20.7366 19.7498 20.8534 20.2418 21.2621 20.5167Z" fill="#F8ED7D"/>
<path d="M21.8899 19.8656C21.8607 20.343 22.1673 20.7482 22.1673 20.7482C22.1673 20.7482 22.5177 20.3864 22.5469 19.909C22.5761 19.4315 22.2695 19.0264 22.2695 19.0264C22.2695 19.0264 21.9191 19.3881 21.8899 19.8656Z" fill="#F8ED7D"/>
<path d="M20.5906 19.5039C21.0286 19.721 21.5396 19.5907 21.5396 19.5907C21.5396 19.5907 21.3352 19.1277 20.8972 18.9107C20.4592 18.6937 19.9482 18.8239 19.9482 18.8239C19.9482 18.8239 20.1526 19.2869 20.5906 19.5039Z" fill="#F8ED7D"/>
<path d="M21.116 18.766C21.1598 19.2434 21.5394 19.5907 21.5394 19.5907C21.5394 19.5907 21.8314 19.1711 21.7876 18.6936C21.7438 18.2161 21.3642 17.8689 21.3642 17.8689C21.3642 17.8689 21.0723 18.2885 21.116 18.766Z" fill="#F8ED7D"/>
<path d="M20.2404 18.0425C20.2258 18.0569 20.1966 18.0859 20.1674 18.1004C20.1528 18.1004 20.1528 18.1148 20.1382 18.1148C21.6711 19.417 22.6347 21.2835 22.6347 23.367C22.6347 27.2736 19.2477 30.4422 15.0723 30.4422C10.8969 30.4422 7.50986 27.2736 7.50986 23.367C7.50986 21.3703 8.40042 19.5762 9.81654 18.2885C9.77275 18.274 9.72895 18.2595 9.69975 18.245C8.28362 19.5472 7.39307 21.3703 7.39307 23.367C7.39307 27.3314 10.8385 30.558 15.0723 30.558C19.3061 30.558 22.7515 27.3314 22.7515 23.367C22.7661 21.2546 21.7879 19.3591 20.2404 18.0425Z" fill="#F8ED7D"/>
<path d="M10.5904 18.549C10.1086 18.6503 9.65601 18.4188 9.65601 18.4188C9.65601 18.4188 9.97719 18.0136 10.459 17.9124C10.9407 17.8111 11.3933 18.0426 11.3933 18.0426C11.3933 18.0426 11.0575 18.4477 10.5904 18.549Z" fill="#F8ED7D"/>
<path d="M10.2544 17.7097C10.0938 18.1582 9.64121 18.4187 9.64121 18.4187C9.64121 18.4187 9.46602 17.9412 9.62661 17.4927C9.78721 17.0441 10.2398 16.7837 10.2398 16.7837C10.2398 16.7837 10.4296 17.2612 10.2544 17.7097Z" fill="#F8ED7D"/>
<path d="M19.6272 18.549C20.109 18.6503 20.5615 18.4188 20.5615 18.4188C20.5615 18.4188 20.2403 18.0136 19.7586 17.9124C19.2768 17.8111 18.8242 18.0426 18.8242 18.0426C18.8242 18.0426 19.1454 18.4477 19.6272 18.549Z" fill="#F8ED7D"/>
<path d="M19.9484 17.7097C20.109 18.1582 20.5616 18.4187 20.5616 18.4187C20.5616 18.4187 20.7368 17.9412 20.5762 17.4927C20.4156 17.0441 19.963 16.7837 19.963 16.7837C19.963 16.7837 19.7878 17.2612 19.9484 17.7097Z" fill="#F8ED7D"/>
<path d="M14.678 18.8528H16.3715V26.9119H14.386V21.0231L12.8823 22.0504L11.9187 20.6614L14.678 18.8528Z" fill="white"/>
</g>
<defs>
<clipPath id="clip0">
<rect width="30" height="35" fill="white"/>
</clipPath>
</defs>
</svg>
