<svg width="30" height="35" viewBox="0 0 30 35" fill="none" xmlns="http://www.w3.org/2000/svg">
<g clip-path="url(#clip0)">
<path d="M22.1301 27.8609C20.6426 28.7546 18.9376 29.3355 17.0839 29.5365L17.0496 29.2014C18.9834 29.0003 20.757 28.3524 22.2789 27.3694C22.2217 27.5369 22.1645 27.7045 22.1301 27.8609Z" fill="#FF921D"/>
<path d="M19.6128 6.36819C19.5556 6.24531 19.4984 6.15595 19.487 6.14478C18.789 5.00535 17.7133 4.81544 16.1228 5.03886C16.2944 5.28462 16.7865 5.9437 17.3815 6.30117C17.4387 6.32351 18.1024 6.88205 19.6128 6.36819Z" fill="#FF921D"/>
<path d="M19.4981 6.56916C18.6399 6.82609 17.9305 6.80375 17.3927 6.49097C17.015 6.73673 16.6832 7.016 16.5459 7.15005C17.8504 7.76445 18.6285 7.60805 19.4981 6.56916Z" fill="#FF921D"/>
<path d="M19.6816 5.765C19.6358 4.93835 19.2696 4.36864 17.908 4C17.908 4.16756 17.9194 4.52503 17.9766 4.89367C18.4229 4.98304 18.9264 5.13943 19.3955 5.73148C19.4985 5.73148 19.5443 5.74266 19.6816 5.765Z" fill="#FF921D"/>
<path d="M22.4394 8.43477C22.4165 8.11082 22.4165 7.93208 22.428 7.78686C22.5424 7.82038 22.5996 7.84272 22.7483 7.89857C22.4737 6.94905 21.9931 6.70329 21.4668 6.40167C20.7916 6.08889 19.6245 5.91016 19.613 5.91016C20.1623 7.9656 21.1578 8.41243 22.4394 8.43477Z" fill="#FF921D"/>
<path d="M22.4619 8.7141C22.4619 8.66942 22.4505 8.62473 22.4505 8.59122C21.558 8.56888 20.8714 8.32312 20.4137 7.84277C19.8988 7.98799 19.4182 8.20024 19.2236 8.28961C20.3679 9.36201 21.2719 9.4067 22.4619 8.7141Z" fill="#FF921D"/>
<path d="M23.0683 8.02153C23.4802 6.94912 23.2972 6.16716 21.924 5.32935C21.8554 5.49691 21.7295 5.88789 21.6494 6.32355C22.336 6.66985 22.7365 7.18371 22.9424 7.97684C22.9768 7.98801 23.0225 8.01035 23.0683 8.02153Z" fill="#FF921D"/>
<path d="M25.4715 10.9258C25.4486 9.52949 24.5561 9.07149 24.4531 8.94861C23.9725 8.59114 23.3203 8.25601 22.5994 8.01025C22.6451 9.61886 22.9655 10.8253 24.6705 11.3392C24.7163 10.9705 24.7735 10.7471 24.8193 10.5349C24.9909 10.6354 25.1625 10.7248 25.4715 10.9258Z" fill="#FF921D"/>
<path d="M24.6132 11.8305C24.6246 11.7188 24.6246 11.6071 24.636 11.4954C23.8122 11.2496 23.2744 10.8698 22.9425 10.3113C22.3246 10.356 21.7296 10.4788 21.5007 10.5347C22.4047 11.9087 23.3201 12.1656 24.6132 11.8305Z" fill="#FF921D"/>
<path d="M25.769 11.1381C26.5356 10.0545 26.5585 9.14963 25.2884 7.90967C25.174 8.07723 24.9108 8.49055 24.6934 8.94856C25.357 9.48476 25.6431 10.1327 25.6317 11.0487C25.6774 11.071 25.7232 11.1045 25.769 11.1381Z" fill="#FF921D"/>
<path d="M27.3594 14.5228C27.6569 13.0371 26.9132 12.4786 26.753 12.1993C26.2266 11.6184 25.5972 11.1939 24.9336 10.7917C24.6704 12.2551 24.556 13.618 25.8833 14.5452C26.0092 14.1989 26.1579 13.8526 26.3525 13.5063C26.7301 13.8302 27.0734 14.1877 27.3594 14.5228Z" fill="#FF921D"/>
<path d="M25.6314 15.3608C25.6771 15.1486 25.7458 14.9363 25.8259 14.6906C25.2652 14.3108 24.9334 13.8974 24.7503 13.3501C24.0523 13.2719 23.3657 13.3054 23.1025 13.3166C23.7548 14.9698 24.6587 15.3273 25.6314 15.3608Z" fill="#FF921D"/>
<path d="M27.6108 14.8356C28.7436 13.7967 28.9954 12.8025 27.8969 11.1938C27.7367 11.3502 27.3362 11.7524 26.9814 12.2216C27.5765 12.9253 27.7252 13.6961 27.4964 14.6903C27.5307 14.735 27.565 14.7797 27.6108 14.8356Z" fill="#FF921D"/>
<path d="M27.9998 18.2652C28.6063 16.9694 28.2401 16.355 27.9884 15.7071C27.5307 14.8469 26.7297 14.0538 26.4093 13.7522C25.757 15.0592 25.2879 16.5561 26.1804 17.7514C26.4436 17.3716 26.7754 16.9694 27.1302 16.5896C27.4734 17.137 27.7824 17.7402 27.9998 18.2652Z" fill="#FF921D"/>
<path d="M25.5743 18.757C25.7001 18.4777 25.8718 18.1985 26.0663 17.908C25.7116 17.4612 25.54 17.0143 25.5171 16.4893C24.7847 16.2547 24.041 16.1318 23.7549 16.0872C23.9265 17.2489 24.2355 18.299 25.5743 18.757Z" fill="#FF921D"/>
<path d="M28.1602 18.7121C29.6592 17.8408 30.2199 16.8466 29.4761 14.8582C29.2702 14.981 28.7209 15.3273 28.206 15.763C28.5149 16.3997 28.7323 17.2152 28.0916 18.4775C28.103 18.5557 28.1259 18.6339 28.1602 18.7121Z" fill="#FF921D"/>
<path d="M27.565 21.7506C28.4804 20.5329 28.1486 19.751 28.1486 19.36C27.9426 18.3211 27.3819 17.3157 27.0959 16.8689C25.9745 18.1312 24.9904 19.5834 25.574 21.0915C26.4779 20.3877 27.3247 19.9856 27.3362 19.9744C27.4735 20.5553 27.5421 21.192 27.565 21.7506Z" fill="#FF921D"/>
<path d="M24.6359 21.9516C24.8533 21.7058 25.1279 21.4489 25.4369 21.2032C25.1966 20.6111 25.1508 20.0972 25.2881 19.5275C24.5901 19.0919 23.8349 18.7679 23.5488 18.645C23.3657 19.9073 23.3314 21.1138 24.6359 21.9516Z" fill="#FF921D"/>
<path d="M29.9793 18.8127C29.5788 18.9356 28.7892 19.2037 28.3315 19.4495C28.4917 20.3878 28.2629 21.1698 27.5649 22.03C27.5649 22.1975 27.5534 22.3539 27.542 22.5103C29.2241 21.9629 30.128 21.0246 29.9793 18.8127Z" fill="#FF921D"/>
<path d="M27.2907 23.1358C27.4737 22.2421 27.3936 21.0915 27.2334 20.209C25.8489 20.9686 24.2354 22.0969 24.0066 23.5491C24.533 23.348 25.1509 23.1581 25.7344 23.024C25.6543 23.8842 25.4369 24.9231 25.0937 25.7609C26.6155 24.9901 26.9245 24.3199 27.2907 23.1358Z" fill="#FF921D"/>
<path d="M23.8121 23.6163C23.8693 23.1471 24.0295 22.7673 24.3155 22.3539C23.9723 21.8736 23.2399 21.2033 22.8738 20.8794C22.2215 21.963 21.7638 23.2029 22.4046 24.2865C22.8394 24.0407 23.3315 23.8062 23.8121 23.6163Z" fill="#FF921D"/>
<path d="M29.3963 23.1245C29.1102 23.1245 28.2863 23.1245 27.4396 23.2474C27.2107 24.3421 26.5928 25.2135 25.0023 25.9731C24.9794 26.0178 24.9565 26.0736 24.9336 26.1183C27.3823 26.2635 28.6525 25.4816 29.3963 23.1245Z" fill="#FF921D"/>
<path d="M23.0455 27.9169C24.2012 27.2802 24.6475 26.3083 24.6704 26.286C25.1052 25.4705 25.4027 24.4428 25.54 23.2363C22.1987 24.0853 20.2077 25.504 20.7341 28.5984C21.5007 28.4755 22.2102 28.3638 23.0455 27.9169Z" fill="#FF921D"/>
<path d="M20.5395 28.4531C20.345 26.878 20.8027 25.5598 21.8097 24.7332C21.455 23.8618 20.9515 23.0687 20.7798 22.8118C20.448 23.1134 19.0978 24.4092 19.1092 25.6715C19.1092 26.8221 20.1162 28.0062 20.5395 28.4531Z" fill="#FF921D"/>
<path d="M26.8557 26.8222C26.5696 26.744 25.6999 26.5429 24.7616 26.4424C24.0064 27.7717 22.6447 28.4867 20.9626 28.7101C23.4801 29.5814 25.2194 29.2239 26.8557 26.8222Z" fill="#FF921D"/>
<path d="M7.87263 27.8609C9.36019 28.7546 11.0652 29.3355 12.9189 29.5365L12.9532 29.2014C11.0194 29.0003 9.24576 28.3524 7.72388 27.3694C7.78109 27.5369 7.82686 27.7045 7.87263 27.8609Z" fill="#FF921D"/>
<path d="M10.3784 6.36819C10.4356 6.24531 10.4928 6.15595 10.5043 6.14478C11.2137 5.00535 12.2779 4.81544 13.8685 5.03886C13.6968 5.28462 13.2048 5.9437 12.6098 6.30117C12.564 6.32351 11.9003 6.88205 10.3784 6.36819Z" fill="#FF921D"/>
<path d="M10.5042 6.56916C11.3624 6.82609 12.0718 6.80375 12.6096 6.49097C12.9872 6.73673 13.3191 7.016 13.4564 7.15005C12.1519 7.76445 11.3624 7.60805 10.5042 6.56916Z" fill="#FF921D"/>
<path d="M10.3213 5.765C10.3671 4.92718 10.7332 4.36864 12.0949 4C12.0949 4.16756 12.0835 4.52503 12.0263 4.89367C11.58 4.98304 11.0765 5.13943 10.6074 5.73148C10.5044 5.73148 10.4586 5.74266 10.3213 5.765Z" fill="#FF921D"/>
<path d="M7.56408 8.43477C7.58697 8.11082 7.58697 7.93208 7.57552 7.78686C7.4611 7.82038 7.40388 7.84272 7.25513 7.89857C7.52975 6.94905 8.01035 6.70329 8.53671 6.40167C9.21183 6.08889 10.379 5.91016 10.3904 5.91016C9.84119 7.9656 8.84567 8.41243 7.56408 8.43477Z" fill="#FF921D"/>
<path d="M7.52954 8.71386C7.52954 8.66917 7.54098 8.62449 7.54098 8.59098C8.43352 8.56864 9.12008 8.32288 9.57779 7.84253C10.0927 7.98775 10.5733 8.2 10.7678 8.28936C9.635 9.36177 8.73103 9.40645 7.52954 8.71386Z" fill="#FF921D"/>
<path d="M6.9345 8.02153C6.52257 6.94912 6.70565 6.16716 8.07878 5.32935C8.14743 5.49691 8.2733 5.88789 8.3534 6.32355C7.66684 6.66985 7.26634 7.18371 7.06037 7.97684C7.02605 7.98801 6.98027 8.01035 6.9345 8.02153Z" fill="#FF921D"/>
<path d="M4.53149 10.9258C4.55438 9.52949 5.44691 9.07149 5.5499 8.94861C6.03049 8.59114 6.68273 8.25601 7.40362 8.01025C7.35785 9.61886 7.03746 10.8253 5.33249 11.3392C5.28672 10.9705 5.2295 10.7471 5.18373 10.5349C5.01209 10.6354 4.84045 10.7248 4.53149 10.9258Z" fill="#FF921D"/>
<path d="M5.38958 11.8305C5.37814 11.7188 5.37814 11.6071 5.3667 11.4954C6.19058 11.2496 6.72839 10.8698 7.06023 10.3113C7.67813 10.356 8.27316 10.4788 8.50201 10.5347C7.59804 11.9087 6.68261 12.1656 5.38958 11.8305Z" fill="#FF921D"/>
<path d="M4.22244 11.1381C3.45578 10.0545 3.43289 9.14963 4.71448 7.90967C4.82891 8.07723 5.09209 8.49055 5.3095 8.94856C4.64582 9.47359 4.34831 10.1215 4.35976 11.0375C4.31398 11.071 4.26821 11.1045 4.22244 11.1381Z" fill="#FF921D"/>
<path d="M2.6435 14.5228C2.34599 13.0371 3.08976 12.4785 3.24996 12.1993C3.77633 11.6184 4.40568 11.1939 5.06936 10.7917C5.33254 12.2551 5.44697 13.6068 4.11961 14.534C3.99374 14.1877 3.84499 13.8414 3.65046 13.4951C3.27285 13.8302 2.92957 14.1877 2.6435 14.5228Z" fill="#FF921D"/>
<path d="M4.36005 15.3608C4.31428 15.1486 4.24563 14.9363 4.16553 14.6906C4.72622 14.3108 5.05806 13.8974 5.24114 13.3501C5.93915 13.2719 6.62572 13.3054 6.8889 13.3166C6.24811 14.9699 5.33269 15.3273 4.36005 15.3608Z" fill="#FF921D"/>
<path d="M2.39174 14.8356C1.25891 13.7855 1.00717 12.8025 2.10567 11.1938C2.26587 11.3502 2.66636 11.7524 3.02109 12.2216C2.42607 12.9253 2.27731 13.6961 2.50617 14.6903C2.47184 14.735 2.43751 14.7797 2.39174 14.8356Z" fill="#FF921D"/>
<path d="M2.00259 18.2652C1.39613 16.9694 1.7623 16.355 2.01404 15.7071C2.47174 14.8469 3.27274 14.0538 3.59313 13.7522C4.24537 15.0592 4.71452 16.5561 3.82199 17.7514C3.55881 17.3716 3.22697 16.9694 2.87224 16.5896C2.52896 17.137 2.22 17.7402 2.00259 18.2652Z" fill="#FF921D"/>
<path d="M4.41709 18.7568C4.29122 18.4775 4.11958 18.1982 3.92505 17.9078C4.27977 17.4609 4.45141 17.0141 4.4743 16.4891C5.20664 16.2545 5.95041 16.1316 6.23648 16.0869C6.07628 17.2487 5.76733 18.2987 4.41709 18.7568Z" fill="#FF921D"/>
<path d="M1.84248 18.7121C0.343481 17.852 -0.217214 16.8466 0.526564 14.8582C0.732534 14.981 1.28179 15.3273 1.79671 15.763C1.48775 16.3997 1.27034 17.2152 1.91114 18.4775C1.89969 18.5557 1.86536 18.6339 1.84248 18.7121Z" fill="#FF921D"/>
<path d="M2.43736 21.7506C1.52194 20.5329 1.85378 19.751 1.85378 19.36C2.05975 18.3211 2.62045 17.3157 2.90652 16.8689C4.0279 18.1312 5.01198 19.5834 4.4284 21.0915C3.52442 20.3877 2.67766 19.9856 2.66622 19.9744C2.51746 20.5553 2.44881 21.192 2.43736 21.7506Z" fill="#FF921D"/>
<path d="M5.35519 21.9516C5.13778 21.7058 4.86315 21.4489 4.5542 21.2031C4.7945 20.6111 4.84027 20.0972 4.70295 19.5275C5.40096 19.0919 6.15618 18.7679 6.44225 18.645C6.63678 19.9073 6.67111 21.1138 5.35519 21.9516Z" fill="#FF921D"/>
<path d="M0.0114685 18.8127C0.411964 18.9356 1.20151 19.2037 1.65922 19.4495C1.49902 20.3878 1.72788 21.1698 2.42589 22.03C2.42589 22.1975 2.43733 22.3539 2.44877 22.5103C0.766689 21.9629 -0.137287 21.0246 0.0114685 18.8127Z" fill="#FF921D"/>
<path d="M2.71179 23.1358C2.52871 22.2421 2.60881 21.0915 2.76901 20.209C4.15358 20.9686 5.767 22.0969 5.99586 23.5491C5.46949 23.348 4.85159 23.1581 4.26801 23.024C4.3481 23.8842 4.56552 24.9231 4.9088 25.7609C3.38691 24.9901 3.07796 24.3199 2.71179 23.1358Z" fill="#FF921D"/>
<path d="M6.19049 23.616C6.13328 23.1468 5.97308 22.767 5.68701 22.3537C6.03029 21.8734 6.76263 21.2031 7.1288 20.8792C7.78103 21.9627 8.23874 23.2027 7.59795 24.2863C7.16312 24.0405 6.67109 23.8059 6.19049 23.616Z" fill="#FF921D"/>
<path d="M0.594971 23.1245C0.881039 23.1245 1.70492 23.1245 2.55168 23.2474C2.78053 24.3421 3.39844 25.2135 4.98898 25.9731C5.01187 26.0178 5.03475 26.0736 5.05764 26.1183C2.62034 26.2635 1.35019 25.4816 0.594971 23.1245Z" fill="#FF921D"/>
<path d="M6.95716 27.9169C5.80145 27.2802 5.35518 26.3083 5.33229 26.286C4.89747 25.4705 4.59996 24.4428 4.46265 23.2363C7.80393 24.0853 9.79496 25.504 9.2686 28.5984C8.49049 28.4755 7.78104 28.3638 6.95716 27.9169Z" fill="#FF921D"/>
<path d="M9.46302 28.4531C9.65754 26.878 9.19983 25.5598 8.19287 24.7332C8.5476 23.8618 9.05108 23.0687 9.22272 22.8118C9.55456 23.1134 10.9048 24.4092 10.8934 25.6715C10.8934 26.8221 9.8864 28.0062 9.46302 28.4531Z" fill="#FF921D"/>
<path d="M3.14673 26.8222C3.4328 26.744 4.30245 26.5429 5.24075 26.4424C5.99597 27.7717 7.35766 28.4867 9.03974 28.7101C6.51089 29.5814 4.78304 29.2239 3.14673 26.8222Z" fill="#FF921D"/>
<path d="M15.116 28.0732H14.8528C14.521 28.0732 14.2463 28.3413 14.2463 28.6653V30.408C14.2463 30.7319 14.521 31 14.8528 31H15.116C15.4478 31 15.7225 30.7319 15.7225 30.408V28.6653C15.711 28.3413 15.4478 28.0732 15.116 28.0732Z" fill="#FF921D"/>
<path d="M14.109 28.6207C14.109 28.4978 14.1434 28.3861 14.212 28.2856C14.1319 28.2409 14.0404 28.2297 13.9488 28.2297H13.8001C13.5255 28.2297 13.2852 28.4085 13.2852 28.6319V30.4751C13.2852 30.6873 13.5255 30.8772 13.8001 30.8772H13.9488C14.0404 30.8772 14.1319 30.8549 14.212 30.8214C14.1434 30.7208 14.109 30.598 14.109 30.4863V28.6207Z" fill="#FF921D"/>
<path d="M16.1688 28.2185H16.02C15.9285 28.2185 15.8369 28.2408 15.7568 28.2744C15.8255 28.3749 15.8598 28.4978 15.8598 28.6095V30.4527C15.8598 30.5756 15.8255 30.6873 15.7568 30.7878C15.8369 30.8325 15.9285 30.8437 16.02 30.8437H16.1688C16.4434 30.8437 16.6837 30.6649 16.6837 30.4415V28.5983C16.6837 28.3972 16.4434 28.2185 16.1688 28.2185Z" fill="#FF921D"/>
</g>
<defs>
<clipPath id="clip0">
<rect width="30" height="35" fill="white"/>
</clipPath>
</defs>
</svg>
