<svg width="30" height="35" viewBox="0 0 30 35" fill="none" xmlns="http://www.w3.org/2000/svg">
<g clip-path="url(#clip0)">
<path d="M23.7622 0L19.7773 9.65068H11.5303L15.194 0H23.7622Z" fill="#341D68"/>
<path d="M20.1569 7.98682H11.2238C10.6399 7.98682 10.1582 8.46429 10.1582 9.04304V14.6859H21.2224V9.04304C21.2224 8.44982 20.7407 7.98682 20.1569 7.98682ZM20.4342 10.0559H10.7421V9.62179C10.7421 9.15879 11.1216 8.76813 11.6033 8.76813H19.5876C20.0547 8.76813 20.4488 9.14432 20.4488 9.62179V10.0559H20.4342Z" fill="#6B7283"/>
<path d="M7.67676 0L11.5303 9.65068H19.7773L16.026 0H7.67676Z" fill="#5D2AD6"/>
<path d="M13.0483 9.65068L9.12179 0H8.49414L12.4206 9.65068H13.0483Z" fill="white"/>
<path d="M14.9748 9.65068L11.0483 0H10.4207L14.3471 9.65068H14.9748Z" fill="white"/>
<path d="M16.8288 9.65068L12.9023 0H12.2747L16.2011 9.65068H16.8288Z" fill="white"/>
<path d="M18.8139 9.65068L14.902 0H14.2598L18.1862 9.65068H18.8139Z" fill="white"/>
<path d="M27.3514 24.6504C28.2122 18.1377 23.5838 12.1665 17.0136 11.3132C10.4434 10.46 4.41938 15.0479 3.55859 21.5605C2.69781 28.0732 7.3262 34.0445 13.8964 34.8977C20.4666 35.751 26.4906 31.1631 27.3514 24.6504Z" fill="#797F92"/>
<path d="M15.4565 11.2134C15.3397 11.2134 15.223 11.2134 15.1062 11.2134C21.5725 11.4015 26.7543 16.6536 26.7543 23.1067C26.7543 29.5598 21.5725 34.812 15.1062 35.0001C15.223 35.0001 15.3397 35.0001 15.4565 35.0001C22.0834 35.0001 27.4549 29.6756 27.4549 23.1067C27.4549 16.5379 22.0834 11.2134 15.4565 11.2134Z" fill="#6B7283"/>
<path d="M25.1516 24.3646C25.8532 19.0562 22.0807 14.1891 16.7254 13.4936C11.3701 12.7982 6.46004 16.5377 5.75842 21.8461C5.05681 27.1545 8.82935 32.0216 14.1846 32.717C19.5399 33.4125 24.45 29.673 25.1516 24.3646Z" fill="#9EA7B9"/>
<path d="M15.15 24.7996H18.1423V26.2609H12.7708V24.7417C13.7049 23.9459 16.055 22.0071 16.055 20.7917C16.055 20.184 15.6463 19.7644 14.9748 19.7644C14.3034 19.7644 13.6174 20.0249 13.0189 20.3287L12.9605 18.7082C17.0184 17.1166 19.2516 19.6631 17.3395 22.4556C16.887 23.1646 16.1572 23.9314 15.15 24.7996Z" fill="white"/>
<path d="M14.2595 29.8491C14.639 30.1529 14.7412 30.6448 14.7412 30.6448C14.7412 30.6448 14.2303 30.6593 13.8362 30.3555C13.4567 30.0516 13.3545 29.5597 13.3545 29.5597C13.3545 29.5597 13.88 29.5452 14.2595 29.8491Z" fill="#B9C4D5"/>
<path d="M13.7923 30.6304C14.2594 30.4712 14.7411 30.6449 14.7411 30.6449C14.7411 30.6449 14.4784 31.0789 14.0113 31.2381C13.5442 31.3973 13.0625 31.2236 13.0625 31.2236C13.0625 31.2236 13.3398 30.7896 13.7923 30.6304Z" fill="#B9C4D5"/>
<path d="M12.7709 29.4437C13.1066 29.791 13.1358 30.2974 13.1358 30.2974C13.1358 30.2974 12.625 30.2395 12.2892 29.8922C11.9535 29.545 11.9243 29.0386 11.9243 29.0386C11.9243 29.0386 12.4352 29.0964 12.7709 29.4437Z" fill="#B9C4D5"/>
<path d="M12.2015 30.1529C12.6832 30.0516 13.1357 30.2976 13.1357 30.2976C13.1357 30.2976 12.8146 30.6882 12.3329 30.7895C11.8512 30.8908 11.3987 30.6448 11.3987 30.6448C11.3987 30.6448 11.7198 30.2542 12.2015 30.1529Z" fill="#B9C4D5"/>
<path d="M11.5886 28.8649C11.8659 29.2556 11.8075 29.762 11.8075 29.762C11.8075 29.762 11.3112 29.6318 11.0339 29.2267C10.7566 28.836 10.8149 28.3296 10.8149 28.3296C10.8149 28.3296 11.3112 28.4743 11.5886 28.8649Z" fill="#B9C4D5"/>
<path d="M10.9171 29.4873C11.4133 29.4728 11.822 29.7767 11.822 29.7767C11.822 29.7767 11.4425 30.124 10.9462 30.1384C10.45 30.1529 10.0413 29.849 10.0413 29.849C10.0413 29.849 10.4208 29.5018 10.9171 29.4873Z" fill="#B9C4D5"/>
<path d="M10.4939 27.9972C10.669 28.4458 10.4939 28.9232 10.4939 28.9232C10.4939 28.9232 10.0414 28.6773 9.88083 28.2287C9.70567 27.7802 9.88083 27.3027 9.88083 27.3027C9.88083 27.3027 10.3187 27.5487 10.4939 27.9972Z" fill="#B9C4D5"/>
<path d="M9.69102 28.431C10.1727 28.5322 10.4938 28.9229 10.4938 28.9229C10.4938 28.9229 10.0413 29.1689 9.55965 29.0676C9.07796 28.9663 8.75684 28.5756 8.75684 28.5756C8.75684 28.5756 9.20933 28.3297 9.69102 28.431Z" fill="#B9C4D5"/>
<path d="M9.66183 26.9697C9.72022 27.4472 9.42829 27.8668 9.42829 27.8668C9.42829 27.8668 9.04877 27.5196 8.99039 27.0421C8.932 26.5646 9.22393 26.145 9.22393 26.145C9.22393 26.145 9.60344 26.5067 9.66183 26.9697Z" fill="#B9C4D5"/>
<path d="M8.77153 27.2156C9.20943 27.4182 9.42838 27.8812 9.42838 27.8812C9.42838 27.8812 8.93209 28.0114 8.4796 27.8088C8.0417 27.6063 7.82275 27.1433 7.82275 27.1433C7.82275 27.1433 8.33363 27.013 8.77153 27.2156Z" fill="#B9C4D5"/>
<path d="M8.96109 25.6963C8.9173 26.1738 8.55239 26.5355 8.55239 26.5355C8.55239 26.5355 8.26046 26.1159 8.28965 25.6529C8.33344 25.1754 8.69835 24.8137 8.69835 24.8137C8.69835 24.8137 8.99029 25.2188 8.96109 25.6963Z" fill="#B9C4D5"/>
<path d="M8.04171 25.7544C8.43581 26.0438 8.55259 26.5357 8.55259 26.5357C8.55259 26.5357 8.04171 26.5647 7.6476 26.2753C7.25349 25.9859 7.13672 25.494 7.13672 25.494C7.13672 25.494 7.6476 25.465 8.04171 25.7544Z" fill="#B9C4D5"/>
<path d="M8.59628 24.4811C8.47951 24.9441 8.05621 25.248 8.05621 25.248C8.05621 25.248 7.82266 24.7994 7.93943 24.3364C8.05621 23.8734 8.47951 23.5696 8.47951 23.5696C8.47951 23.5696 8.71305 24.0181 8.59628 24.4811Z" fill="#B9C4D5"/>
<path d="M7.67663 24.3941C8.01235 24.7413 8.05614 25.2477 8.05614 25.2477C8.05614 25.2477 7.54526 25.1899 7.19494 24.8571C6.85922 24.5098 6.81543 24.0034 6.81543 24.0034C6.81543 24.0034 7.32631 24.0468 7.67663 24.3941Z" fill="#B9C4D5"/>
<path d="M8.55228 23.121C8.31873 23.5406 7.83705 23.7287 7.83705 23.7287C7.83705 23.7287 7.73487 23.2368 7.95382 22.8172C8.18736 22.3976 8.66905 22.2095 8.66905 22.2095C8.66905 22.2095 8.78582 22.7014 8.55228 23.121Z" fill="#B9C4D5"/>
<path d="M7.67647 22.817C7.92461 23.2366 7.83703 23.7286 7.83703 23.7286C7.83703 23.7286 7.35534 23.5549 7.1072 23.1498C6.85906 22.7302 6.94664 22.2383 6.94664 22.2383C6.94664 22.2383 7.44292 22.4119 7.67647 22.817Z" fill="#B9C4D5"/>
<path d="M8.80051 21.7465C8.47939 22.1083 7.96851 22.1806 7.96851 22.1806C7.96851 22.1806 7.9831 21.6742 8.30423 21.3125C8.62535 20.9508 9.13623 20.8784 9.13623 20.8784C9.13623 20.8784 9.12164 21.3848 8.80051 21.7465Z" fill="#B9C4D5"/>
<path d="M8.0269 21.2545C8.17286 21.7175 7.95391 22.1805 7.95391 22.1805C7.95391 22.1805 7.51602 21.9056 7.38465 21.4426C7.23868 20.9796 7.45763 20.5166 7.45763 20.5166C7.45763 20.5166 7.88093 20.7915 8.0269 21.2545Z" fill="#B9C4D5"/>
<path d="M9.29678 20.618C8.90267 20.8929 8.3772 20.8495 8.3772 20.8495C8.3772 20.8495 8.50857 20.3575 8.90267 20.0826C9.29678 19.8077 9.82226 19.8511 9.82226 19.8511C9.82226 19.8511 9.69089 20.3431 9.29678 20.618Z" fill="#B9C4D5"/>
<path d="M8.65441 19.9671C8.68361 20.4446 8.37708 20.8497 8.37708 20.8497C8.37708 20.8497 8.02676 20.488 7.99757 20.0105C7.96837 19.5331 8.2749 19.1279 8.2749 19.1279C8.2749 19.1279 8.62522 19.4896 8.65441 19.9671Z" fill="#B9C4D5"/>
<path d="M9.92436 19.5908C9.48647 19.8079 8.97559 19.6777 8.97559 19.6777C8.97559 19.6777 9.17994 19.2147 9.61784 18.9976C10.0557 18.7806 10.5666 18.9108 10.5666 18.9108C10.5666 18.9108 10.3623 19.3883 9.92436 19.5908Z" fill="#B9C4D5"/>
<path d="M9.39906 18.8529C9.35527 19.3303 8.97576 19.6776 8.97576 19.6776C8.97576 19.6776 8.68383 19.258 8.72762 18.7805C8.77141 18.3031 9.15092 17.9558 9.15092 17.9558C9.15092 17.9558 9.44285 18.3754 9.39906 18.8529Z" fill="#B9C4D5"/>
<path d="M16.9163 29.7914C16.5367 30.0953 16.4346 30.5872 16.4346 30.5872C16.4346 30.5872 16.9455 30.6017 17.3396 30.2978C17.7191 29.994 17.8212 29.5021 17.8212 29.5021C17.8212 29.5021 17.2958 29.4876 16.9163 29.7914Z" fill="#B9C4D5"/>
<path d="M17.3833 30.5584C16.9163 30.3992 16.4346 30.5729 16.4346 30.5729C16.4346 30.5729 16.6973 31.0069 17.1644 31.1661C17.6315 31.3252 18.1132 31.1516 18.1132 31.1516C18.1132 31.1516 17.8358 30.7175 17.3833 30.5584Z" fill="#B9C4D5"/>
<path d="M18.2153 29.4439C17.8795 29.7912 17.8503 30.2976 17.8503 30.2976C17.8503 30.2976 18.3612 30.2397 18.6969 29.8925C19.0327 29.5452 19.0619 29.0388 19.0619 29.0388C19.0619 29.0388 18.551 29.0967 18.2153 29.4439Z" fill="#B9C4D5"/>
<path d="M18.7845 30.1531C18.3028 30.0518 17.8503 30.2978 17.8503 30.2978C17.8503 30.2978 18.1715 30.6885 18.6532 30.7898C19.1348 30.891 19.5873 30.6451 19.5873 30.6451C19.5873 30.6451 19.2662 30.2544 18.7845 30.1531Z" fill="#B9C4D5"/>
<path d="M19.3974 28.822C19.1201 29.2126 19.1785 29.719 19.1785 29.719C19.1785 29.719 19.6747 29.5888 19.9521 29.1837C20.2294 28.793 20.171 28.2866 20.171 28.2866C20.171 28.2866 19.6747 28.4313 19.3974 28.822Z" fill="#B9C4D5"/>
<path d="M20.0688 29.4297C19.5725 29.4152 19.1638 29.7191 19.1638 29.7191C19.1638 29.7191 19.5433 30.0663 20.0396 30.0808C20.5359 30.0953 20.9446 29.7914 20.9446 29.7914C20.9446 29.7914 20.5505 29.4586 20.0688 29.4297Z" fill="#B9C4D5"/>
<path d="M20.4485 27.9684C20.2733 28.417 20.4485 28.8944 20.4485 28.8944C20.4485 28.8944 20.9009 28.6485 21.0615 28.1999C21.2367 27.7514 21.0615 27.2739 21.0615 27.2739C21.0615 27.2739 20.6236 27.5199 20.4485 27.9684Z" fill="#B9C4D5"/>
<path d="M21.2659 28.4024C20.7843 28.5037 20.4631 28.8943 20.4631 28.8943C20.4631 28.8943 20.9156 29.1403 21.3973 29.039C21.879 28.9377 22.2001 28.5471 22.2001 28.5471C22.2001 28.5471 21.733 28.3011 21.2659 28.4024Z" fill="#B9C4D5"/>
<path d="M21.3244 26.8831C21.266 27.3605 21.5579 27.7801 21.5579 27.7801C21.5579 27.7801 21.9374 27.4329 21.9958 26.9554C22.0542 26.4779 21.7623 26.0583 21.7623 26.0583C21.7623 26.0583 21.3828 26.4056 21.3244 26.8831Z" fill="#B9C4D5"/>
<path d="M22.2145 27.1148C21.7766 27.3173 21.5576 27.7803 21.5576 27.7803C21.5576 27.7803 22.0539 27.9106 22.5064 27.708C22.9443 27.5054 23.1632 27.0424 23.1632 27.0424C23.1632 27.0424 22.6524 26.9122 22.2145 27.1148Z" fill="#B9C4D5"/>
<path d="M21.9523 25.6678C21.9961 26.1452 22.361 26.5069 22.361 26.5069C22.361 26.5069 22.6529 26.0873 22.6237 25.6243C22.5799 25.1469 22.215 24.7852 22.215 24.7852C22.215 24.7852 21.9085 25.2047 21.9523 25.6678Z" fill="#B9C4D5"/>
<path d="M22.8717 25.7257C22.4776 26.015 22.3608 26.507 22.3608 26.507C22.3608 26.507 22.8717 26.5359 23.2658 26.2465C23.6599 25.9572 23.7767 25.4652 23.7767 25.4652C23.7767 25.4652 23.2658 25.4508 22.8717 25.7257Z" fill="#B9C4D5"/>
<path d="M22.3171 24.4523C22.4339 24.9153 22.8572 25.2192 22.8572 25.2192C22.8572 25.2192 23.0907 24.7706 22.974 24.3076C22.8572 23.8446 22.4339 23.5408 22.4339 23.5408C22.4339 23.5408 22.2003 23.9893 22.3171 24.4523Z" fill="#B9C4D5"/>
<path d="M23.2367 24.3655C22.901 24.7128 22.8572 25.2192 22.8572 25.2192C22.8572 25.2192 23.3681 25.1613 23.7184 24.8285C24.0541 24.4813 24.0979 23.9749 24.0979 23.9749C24.0979 23.9749 23.5724 24.0183 23.2367 24.3655Z" fill="#B9C4D5"/>
<path d="M22.3608 23.1357C22.5944 23.5552 23.076 23.7433 23.076 23.7433C23.076 23.7433 23.1782 23.2514 22.9593 22.8318C22.7257 22.4122 22.244 22.2241 22.244 22.2241C22.244 22.2241 22.1273 22.7161 22.3608 23.1357Z" fill="#B9C4D5"/>
<path d="M23.2219 22.8317C22.9738 23.2513 23.0614 23.7432 23.0614 23.7432C23.0614 23.7432 23.5431 23.5696 23.7912 23.1645C24.0394 22.7449 23.9518 22.2529 23.9518 22.2529C23.9518 22.2529 23.4701 22.4266 23.2219 22.8317Z" fill="#B9C4D5"/>
<path d="M22.0982 21.7612C22.4193 22.1229 22.9302 22.1953 22.9302 22.1953C22.9302 22.1953 22.9156 21.6889 22.5945 21.3271C22.2733 20.9654 21.7625 20.8931 21.7625 20.8931C21.7625 20.8931 21.777 21.3995 22.0982 21.7612Z" fill="#B9C4D5"/>
<path d="M22.8717 21.2692C22.7257 21.7322 22.9447 22.1952 22.9447 22.1952C22.9447 22.1952 23.3826 21.9203 23.514 21.4573C23.6599 20.9943 23.441 20.5312 23.441 20.5312C23.441 20.5312 23.0031 20.8206 22.8717 21.2692Z" fill="#B9C4D5"/>
<path d="M21.6163 20.6468C22.0104 20.9217 22.5359 20.8783 22.5359 20.8783C22.5359 20.8783 22.4045 20.3864 22.0104 20.1114C21.6163 19.8365 21.0908 19.8799 21.0908 19.8799C21.0908 19.8799 21.2076 20.3719 21.6163 20.6468Z" fill="#B9C4D5"/>
<path d="M22.2439 20.0103C22.2147 20.4878 22.5212 20.8929 22.5212 20.8929C22.5212 20.8929 22.8716 20.5312 22.9008 20.0537C22.9299 19.5763 22.6234 19.1711 22.6234 19.1711C22.6234 19.1711 22.2731 19.5329 22.2439 20.0103Z" fill="#B9C4D5"/>
<path d="M20.945 19.6341C21.3829 19.8511 21.8938 19.7209 21.8938 19.7209C21.8938 19.7209 21.6894 19.2579 21.2515 19.0408C20.8136 18.8238 20.3027 18.954 20.3027 18.954C20.3027 18.954 20.5071 19.4315 20.945 19.6341Z" fill="#B9C4D5"/>
<path d="M21.4703 18.8963C21.5141 19.3738 21.8936 19.7211 21.8936 19.7211C21.8936 19.7211 22.1855 19.3015 22.1417 18.824C22.0979 18.3465 21.7184 17.9993 21.7184 17.9993C21.7184 17.9993 21.4265 18.4333 21.4703 18.8963Z" fill="#B9C4D5"/>
<path d="M20.5945 18.1873C20.5799 18.2017 20.5507 18.2307 20.5215 18.2451C20.5069 18.2451 20.5069 18.2596 20.4923 18.2596C22.025 19.5618 22.9883 21.4283 22.9883 23.5118C22.9883 27.4183 19.6019 30.587 15.4273 30.587C11.2527 30.587 7.86628 27.4183 7.86628 23.5118C7.86628 21.5151 8.75668 19.7209 10.1725 18.4332C10.1288 18.4188 10.085 18.4043 10.0558 18.3898C8.6399 19.692 7.74951 21.5151 7.74951 23.5118C7.74951 27.4762 11.1943 30.7028 15.4273 30.7028C19.6603 30.7028 23.1051 27.4762 23.1051 23.5118C23.1197 21.3993 22.1417 19.5039 20.5945 18.1873Z" fill="#B9C4D5"/>
<path d="M10.9461 18.6938C10.4645 18.795 10.012 18.5635 10.012 18.5635C10.012 18.5635 10.3331 18.1584 10.8148 18.0571C11.2965 17.9558 11.749 18.1874 11.749 18.1874C11.749 18.1874 11.4132 18.5925 10.9461 18.6938Z" fill="#B9C4D5"/>
<path d="M10.6105 17.8545C10.4499 18.303 9.9974 18.5634 9.9974 18.5634C9.9974 18.5634 9.82224 18.086 9.9828 17.6374C10.1434 17.1889 10.5959 16.9285 10.5959 16.9285C10.5959 16.9285 10.7856 17.4059 10.6105 17.8545Z" fill="#B9C4D5"/>
<path d="M19.9815 18.6938C20.4632 18.795 20.9157 18.5635 20.9157 18.5635C20.9157 18.5635 20.5946 18.1584 20.1129 18.0571C19.6312 17.9558 19.1787 18.1874 19.1787 18.1874C19.1787 18.1874 19.4998 18.5925 19.9815 18.6938Z" fill="#B9C4D5"/>
<path d="M20.3026 17.8545C20.4632 18.303 20.9157 18.5634 20.9157 18.5634C20.9157 18.5634 21.0908 18.086 20.9303 17.6374C20.7697 17.1889 20.3172 16.9285 20.3172 16.9285C20.3172 16.9285 20.1421 17.4059 20.3026 17.8545Z" fill="#B9C4D5"/>
</g>
<defs>
<clipPath id="clip0">
<rect width="30" height="35" fill="white"/>
</clipPath>
</defs>
</svg>
