<svg width="30" height="35" viewBox="0 0 30 35" fill="none" xmlns="http://www.w3.org/2000/svg">
<path d="M23.9675 7.82992C23.5865 6.80306 22.8547 6.59973 21.762 6.7014C22.2933 7.69775 22.8948 8.19593 23.9675 7.82992Z" fill="#9EA7B9"/>
<path d="M23.8672 7.99275C23.4061 8.11475 22.9048 8.11475 22.5138 7.83008C22.2632 7.99275 22.0426 8.18592 21.9324 8.27742C22.7645 8.79593 23.2858 8.69426 23.8672 7.99275Z" fill="#9EA7B9"/>
<path d="M24.0176 7.6267C24.1078 6.81335 23.8772 6.34567 22.9649 6C22.9549 6.122 22.9449 6.37617 22.9649 6.65068C23.4461 6.78285 23.797 7.10819 24.0176 7.6267Z" fill="#9EA7B9"/>
<path d="M25.8724 9.90421C25.8924 9.79238 25.8924 9.70087 25.8924 9.69071C25.9526 8.58252 25.351 8.03351 24.2483 7.55566C24.2483 7.79967 24.2683 8.47068 24.4889 8.96886C24.519 9.00953 24.6894 9.67037 25.8724 9.90421Z" fill="#9EA7B9"/>
<path d="M25.712 10.006C25.0604 9.85351 24.6193 9.5485 24.4087 9.11133C24.0579 9.13166 23.727 9.213 23.5767 9.2435C24.1381 10.2093 24.7095 10.4127 25.712 10.006Z" fill="#9EA7B9"/>
<path d="M26.183 9.48727C26.5238 8.86709 26.5338 8.31808 25.8321 7.51489C25.7619 7.6369 25.6115 7.89107 25.4812 8.18591C25.7318 8.42991 25.9724 8.74508 26.0125 9.3551C26.0827 9.40593 26.1128 9.42627 26.183 9.48727Z" fill="#9EA7B9"/>
<path d="M26.7543 12.5272C26.8846 12.2832 26.9648 12.1612 27.0249 12.0493C27.0851 12.1205 27.1152 12.1612 27.1753 12.2527C27.426 11.4495 27.2154 11.0936 27.0149 10.6666C26.7242 10.1786 26.0625 9.57877 26.0525 9.5686C25.5212 11.2766 25.9623 11.9985 26.7543 12.5272Z" fill="#9EA7B9"/>
<path d="M26.6542 12.7406C26.6742 12.7101 26.6843 12.6796 26.7043 12.639C26.1429 12.2628 25.8221 11.8155 25.7419 11.2868C25.351 11.1851 24.95 11.1444 24.7896 11.1343C25.0302 12.3645 25.5815 12.761 26.6542 12.7406Z" fill="#9EA7B9"/>
<path d="M27.3359 12.476C28.0778 11.866 28.2983 11.2255 27.7971 10.0767C27.6768 10.1783 27.4261 10.402 27.1855 10.6867C27.4763 11.2052 27.4963 11.7339 27.2758 12.3947C27.2958 12.415 27.3159 12.4455 27.3359 12.476Z" fill="#9EA7B9"/>
<path d="M27.5767 15.5263C28.1782 14.5097 27.8173 13.8183 27.8073 13.6963C27.6569 13.249 27.3963 12.7508 27.0454 12.2729C26.3637 13.4523 26.0429 14.4487 26.885 15.506C27.0755 15.262 27.2058 15.1197 27.3361 14.9875C27.4063 15.1197 27.4765 15.262 27.5767 15.5263Z" fill="#9EA7B9"/>
<path d="M26.6444 15.8415C26.6945 15.7601 26.7547 15.689 26.8048 15.6178C26.3938 15.1196 26.2133 14.6215 26.2534 14.0826C25.8424 13.8691 25.4113 13.7268 25.2409 13.6658C25.2008 15.018 25.672 15.567 26.6444 15.8415Z" fill="#9EA7B9"/>
<path d="M27.6768 15.8009C28.6493 15.3231 29.0603 14.6826 28.7896 13.2795C28.6392 13.3609 28.2984 13.5439 27.9575 13.7879C28.138 14.4386 28.0377 15.0181 27.6267 15.6789C27.6568 15.7196 27.6668 15.7603 27.6768 15.8009Z" fill="#9EA7B9"/>
<path d="M27.1955 18.8713C28.0376 17.9257 27.8071 17.2242 27.8371 16.9599C27.767 16.3295 27.5464 15.7805 27.3058 15.2112C26.4938 16.1669 25.8221 17.0921 26.2632 18.2917C26.4938 18.0884 26.7444 17.9054 27.0151 17.7326C27.1053 18.1189 27.1655 18.5154 27.1955 18.8713Z" fill="#9EA7B9"/>
<path d="M25.732 18.79C25.8523 18.6579 25.9926 18.5257 26.153 18.3834C25.9626 17.8852 25.9425 17.4582 26.0628 16.9905C25.6518 16.655 25.2007 16.4008 25.0302 16.3093C24.7094 17.7632 25.1305 18.3834 25.732 18.79Z" fill="#9EA7B9"/>
<path d="M27.2156 19.1967C28.3885 18.8917 28.99 18.2817 29.0001 16.6753C28.8296 16.7261 28.3985 16.8583 27.9675 17.0515C28.0276 17.7936 27.797 18.4138 27.2056 19.034C27.2056 19.095 27.2156 19.1458 27.2156 19.1967Z" fill="#9EA7B9"/>
<path d="M25.9426 21.8297C26.895 21.1384 26.9351 20.5487 27.0654 19.9793C27.1556 19.1761 26.9952 18.2916 26.925 17.9358C25.9325 18.617 24.9802 19.5117 25.0203 20.7317C25.3611 20.5588 25.7421 20.3962 26.133 20.2742C26.123 20.8028 26.0528 21.362 25.9426 21.8297Z" fill="#9EA7B9"/>
<path d="M24.1981 21.2198C24.3986 21.0775 24.6292 20.9351 24.8899 20.803C24.8698 20.3353 24.95 19.9489 25.1606 19.5626C24.7997 19.1051 24.3886 18.7188 24.2182 18.5764C23.8172 19.4711 23.5465 20.3556 24.1981 21.2198Z" fill="#9EA7B9"/>
<path d="M25.8523 22.216C27.1856 22.1855 27.9776 21.6873 28.3886 19.959C28.1982 19.9692 27.6969 19.9997 27.1856 20.1013C27.1054 20.6808 26.8749 21.362 25.9124 22.0127C25.8924 22.0839 25.8723 22.155 25.8523 22.216Z" fill="#9EA7B9"/>
<path d="M24.1382 24.1784C25.251 23.6599 25.3913 22.9686 25.5618 22.6839C25.8926 21.8502 25.9728 20.9047 25.9928 20.4675C24.7297 20.925 23.4665 21.5859 23.1658 22.9076C24.048 22.7652 24.7598 22.8059 24.7798 22.8059C24.6094 23.2736 24.3788 23.7718 24.1382 24.1784Z" fill="#9EA7B9"/>
<path d="M22.2032 23.1517C22.4539 23.0602 22.7346 22.989 23.0453 22.928C23.1556 22.4095 23.3561 22.013 23.6869 21.6571C23.4363 21.0675 23.0955 20.5286 22.9752 20.3354C22.2834 21.1793 21.7321 22.0333 22.2032 23.1517Z" fill="#9EA7B9"/>
<path d="M26.975 23.0092C26.6643 22.9381 26.0527 22.8161 25.6517 22.8059C25.341 23.5481 24.8497 24.0158 24.0277 24.3614C23.9575 24.4733 23.8773 24.5953 23.8071 24.6969C25.1004 24.9918 26.0828 24.6766 26.975 23.0092Z" fill="#9EA7B9"/>
<path d="M23.3557 25.063C23.867 24.4835 24.3281 23.6295 24.6088 22.928C23.3958 22.928 21.872 23.1008 21.09 24.0565C21.5111 24.1277 21.9823 24.2293 22.4234 24.3717C21.9923 24.9614 21.3908 25.6222 20.8093 26.0899C22.1126 26.1305 22.6038 25.7747 23.3557 25.063Z" fill="#9EA7B9"/>
<path d="M20.9398 24.026C21.1904 23.7109 21.4511 23.4974 21.812 23.3144C21.802 22.8263 21.6315 22.0537 21.5413 21.6775C20.6491 22.2062 19.807 22.9178 19.7468 23.9549C20.1378 23.9447 20.5488 23.9752 20.9398 24.026Z" fill="#9EA7B9"/>
<path d="M24.6992 25.8967C24.5188 25.7848 23.9975 25.4595 23.396 25.2053C22.7644 25.8967 21.9925 26.283 20.6491 26.2017C20.609 26.2322 20.5789 26.2525 20.5388 26.283C22.0326 27.3505 23.1854 27.2997 24.6992 25.8967Z" fill="#9EA7B9"/>
<path d="M18.554 26.8215C19.5665 26.8215 20.2783 26.303 20.2983 26.2827C20.9299 25.8658 21.5715 25.2457 22.1931 24.4323C19.6968 23.7105 17.8121 23.9443 16.7795 26.3844C17.3309 26.608 17.8322 26.8215 18.554 26.8215Z" fill="#9EA7B9"/>
<path d="M16.7294 26.2117C17.3008 25.0019 18.173 24.2292 19.1755 24.0259C19.3359 23.2532 19.366 22.4805 19.366 22.2263C19.0151 22.3077 17.6016 22.7143 17.0402 23.6293C16.5389 24.463 16.6592 25.7237 16.7294 26.2117Z" fill="#9EA7B9"/>
<path d="M21.4513 27.5537C21.3009 27.3809 20.8398 26.8827 20.2884 26.4456C19.2257 27.1064 18.0428 27.0759 16.8799 26.5676C18.1029 28.1943 19.3561 28.6314 21.4513 27.5537Z" fill="#9EA7B9"/>
<path d="M13.3809 28.3771C14.3634 26.9232 16.0075 26.4047 17.5112 26.0895C17.6716 26.059 17.7318 26.303 17.5614 26.3437C15.837 26.7097 14.8746 27.2282 14.3132 27.6959C14.2932 27.7162 14.2731 27.7366 14.2531 27.7467C13.5914 28.5194 13.8621 28.9871 13.8621 28.9871C13.8621 28.9871 13.6917 29.0379 13.4411 28.9363C13.1904 28.8244 13.03 28.7228 13.03 28.7228L13.3809 28.3771Z" fill="#9EA7B9"/>
<path d="M6.03296 7.82992C6.41391 6.80306 7.14574 6.59973 8.23847 6.7014C7.70714 7.69775 7.10564 8.19593 6.03296 7.82992Z" fill="#9EA7B9"/>
<path d="M6.13281 7.99275C6.59397 8.11475 7.09522 8.11475 7.4862 7.83008C7.73682 7.99275 7.95738 8.18592 8.06765 8.27742C7.23557 8.79593 6.71427 8.69426 6.13281 7.99275Z" fill="#9EA7B9"/>
<path d="M5.98275 7.6267C5.89253 6.81335 6.1231 6.34567 7.02536 6C7.03538 6.122 7.04541 6.37617 7.02536 6.65068C6.55418 6.78285 6.2033 7.10819 5.98275 7.6267Z" fill="#9EA7B9"/>
<path d="M4.11767 9.90421C4.09762 9.79238 4.09762 9.70087 4.09762 9.69071C4.03747 8.58252 4.63898 8.03351 5.74173 7.55566C5.74173 7.79967 5.72168 8.47068 5.50113 8.96886C5.48108 9.00953 5.31066 9.67037 4.11767 9.90421Z" fill="#9EA7B9"/>
<path d="M4.28833 10.006C4.93996 9.85351 5.38106 9.5485 5.59159 9.11133C5.94247 9.13166 6.27329 9.213 6.42367 9.2435C5.86226 10.2093 5.29084 10.4127 4.28833 10.006Z" fill="#9EA7B9"/>
<path d="M3.81702 9.48727C3.47617 8.86709 3.46615 8.31808 4.1679 7.51489C4.23808 7.6369 4.38845 7.89107 4.51878 8.18591C4.26815 8.42991 4.02755 8.74508 3.98745 9.3551C3.91727 9.40593 3.8872 9.42627 3.81702 9.48727Z" fill="#9EA7B9"/>
<path d="M3.24567 12.5272C3.11534 12.2832 3.03514 12.1612 2.97499 12.0493C2.91484 12.1205 2.88476 12.1612 2.82461 12.2527C2.57399 11.4495 2.78451 11.0936 2.98501 10.6666C3.27574 10.1786 3.9374 9.57877 3.94742 9.5686C4.47875 11.2766 4.03765 11.9985 3.24567 12.5272Z" fill="#9EA7B9"/>
<path d="M3.34578 12.7406C3.32573 12.7101 3.3157 12.6796 3.29565 12.639C3.85706 12.2628 4.17786 11.8155 4.25806 11.2868C4.64904 11.1851 5.05004 11.1444 5.21044 11.1343C4.96984 12.3645 4.40844 12.761 3.34578 12.7406Z" fill="#9EA7B9"/>
<path d="M2.66415 12.4763C1.9223 11.8663 1.70174 11.2258 2.203 10.0769C2.3233 10.1786 2.57392 10.4022 2.81453 10.6869C2.5238 11.2054 2.50375 11.7341 2.7243 12.3949C2.70425 12.4153 2.6842 12.4458 2.66415 12.4763Z" fill="#9EA7B9"/>
<path d="M2.42346 15.5263C1.82196 14.5097 2.18286 13.8183 2.19288 13.6963C2.34326 13.249 2.60391 12.7508 2.95479 12.2729C3.63649 13.4523 3.9573 14.4487 3.11519 15.506C2.92471 15.262 2.79439 15.1197 2.66406 14.9875C2.59389 15.1197 2.52371 15.262 2.42346 15.5263Z" fill="#9EA7B9"/>
<path d="M3.35571 15.8415C3.30559 15.7601 3.24544 15.689 3.19531 15.6178C3.60634 15.1196 3.78679 14.6215 3.74669 14.0826C4.15772 13.8691 4.5888 13.7268 4.75922 13.6658C4.79932 15.018 4.32815 15.567 3.35571 15.8415Z" fill="#9EA7B9"/>
<path d="M2.32327 15.8009C1.35084 15.3231 0.939814 14.6724 1.20047 13.2795C1.35084 13.3609 1.69169 13.5439 2.03255 13.7879C1.8521 14.4386 1.95235 15.0181 2.36337 15.6789C2.34332 15.7196 2.3333 15.7603 2.32327 15.8009Z" fill="#9EA7B9"/>
<path d="M2.80439 18.8713C1.96228 17.9257 2.19286 17.2242 2.16278 16.9599C2.23296 16.3295 2.45351 15.7805 2.69411 15.2112C3.50614 16.1669 4.17782 17.0921 3.73672 18.2917C3.50614 18.0884 3.25551 17.9054 2.98484 17.7326C2.89461 18.1189 2.83446 18.5154 2.80439 18.8713Z" fill="#9EA7B9"/>
<path d="M4.26822 18.79C4.14792 18.6579 4.00757 18.5257 3.84717 18.3834C4.03764 17.8852 4.05769 17.4582 3.93739 16.9905C4.34842 16.655 4.79955 16.4008 4.96997 16.3093C5.29077 17.7632 4.86972 18.3834 4.26822 18.79Z" fill="#9EA7B9"/>
<path d="M2.78446 19.1967C1.61153 18.8917 1.01003 18.2817 1 16.6753C1.17043 16.7261 1.6015 16.8583 2.03258 17.0515C1.97243 17.7936 2.20301 18.4138 2.79449 19.034C2.78446 19.095 2.78446 19.1458 2.78446 19.1967Z" fill="#9EA7B9"/>
<path d="M4.05736 21.8297C3.10498 21.1384 3.06488 20.5487 2.93456 19.9793C2.84433 19.1761 3.00473 18.2916 3.07491 17.9358C4.06739 18.617 5.01977 19.5117 4.97967 20.7317C4.63882 20.5588 4.25786 20.3962 3.86689 20.2742C3.87691 20.8028 3.94709 21.362 4.05736 21.8297Z" fill="#9EA7B9"/>
<path d="M5.80201 21.2198C5.6015 21.0775 5.37093 20.9351 5.11028 20.803C5.13033 20.3353 5.05013 19.9489 4.8396 19.5626C5.2005 19.1051 5.61153 18.7188 5.78196 18.5764C6.18296 19.4711 6.45364 20.3556 5.80201 21.2198Z" fill="#9EA7B9"/>
<path d="M4.14767 22.216C2.81434 22.1855 2.02236 21.6874 1.61133 19.959C1.8018 19.9692 2.30306 19.9997 2.81434 20.1013C2.89454 20.6808 3.12511 21.362 4.08752 22.0127C4.10757 22.0839 4.12762 22.155 4.14767 22.216Z" fill="#9EA7B9"/>
<path d="M5.86196 24.1784C4.74918 23.6599 4.60883 22.9686 4.4384 22.6839C4.10757 21.8502 4.02737 20.9047 4.00732 20.4675C5.27048 20.925 6.53364 21.5859 6.83439 22.9076C5.95219 22.7652 5.24041 22.8059 5.22036 22.8059C5.39078 23.2736 5.62136 23.7718 5.86196 24.1784Z" fill="#9EA7B9"/>
<path d="M7.79694 23.1517C7.54632 23.0602 7.26561 22.989 6.95484 22.928C6.84456 22.4095 6.64406 22.013 6.31323 21.6571C6.56386 21.0675 6.90471 20.5286 7.02501 20.3354C7.71674 21.1793 8.26812 22.0333 7.79694 23.1517Z" fill="#9EA7B9"/>
<path d="M3.02515 23.0092C3.33592 22.9381 3.94745 22.8161 4.34845 22.8059C4.65923 23.5481 5.15046 24.0158 5.97251 24.3614C6.04269 24.4733 6.12289 24.5953 6.19307 24.6969C4.89983 24.9918 3.91738 24.6766 3.02515 23.0092Z" fill="#9EA7B9"/>
<path d="M6.644 25.063C6.13272 24.4835 5.67157 23.6295 5.39087 22.928C6.6039 22.928 8.12771 23.1008 8.90966 24.0565C8.48861 24.1277 8.01743 24.2293 7.57633 24.3717C8.00741 24.9614 8.60891 25.6222 9.19036 26.0899C7.88711 26.1305 7.39588 25.7747 6.644 25.063Z" fill="#9EA7B9"/>
<path d="M9.06017 24.026C8.80954 23.7109 8.54889 23.4974 8.18799 23.3144C8.19801 22.8263 8.36844 22.0537 8.45867 21.6775C9.3509 22.2062 10.193 22.9178 10.2532 23.9549C9.86218 23.9447 9.45115 23.9752 9.06017 24.026Z" fill="#9EA7B9"/>
<path d="M5.30078 25.8967C5.48123 25.7848 6.00254 25.4595 6.60404 25.2053C7.23562 25.8967 8.00755 26.283 9.35091 26.2017C9.39101 26.2322 9.42108 26.2525 9.46118 26.283C7.96745 27.3505 6.81457 27.2997 5.30078 25.8967Z" fill="#9EA7B9"/>
<path d="M11.446 26.8215C10.4335 26.8215 9.72167 26.303 9.70162 26.2827C9.07004 25.8658 8.42844 25.2457 7.80688 24.4323C10.3031 23.7105 12.1878 23.9443 13.2204 26.3844C12.669 26.608 12.1678 26.8215 11.446 26.8215Z" fill="#9EA7B9"/>
<path d="M13.2706 26.2117C12.6992 25.0019 11.827 24.2292 10.8245 24.0259C10.6641 23.2532 10.634 22.4805 10.634 22.2263C10.9849 22.3077 12.3984 22.7143 12.9598 23.6293C13.4611 24.463 13.3408 25.7237 13.2706 26.2117Z" fill="#9EA7B9"/>
<path d="M8.54883 27.5537C8.6992 27.3809 9.16036 26.8827 9.71174 26.4456C10.7744 27.1064 11.9573 27.0759 13.1203 26.5676C11.8972 28.1943 10.6441 28.6314 8.54883 27.5537Z" fill="#9EA7B9"/>
<path d="M16.619 28.3773C15.6365 26.9235 13.9924 26.405 12.4887 26.0898C12.3283 26.0593 12.2681 26.3033 12.4386 26.344C14.1629 26.71 15.1253 27.2285 15.6867 27.6961C15.7067 27.7165 15.7268 27.7368 15.7468 27.747C16.4085 28.5197 16.1378 28.9873 16.1378 28.9873C16.1378 28.9873 16.3082 29.0382 16.5589 28.9365C16.8095 28.8247 16.9699 28.723 16.9699 28.723L16.619 28.3773Z" fill="#9EA7B9"/>
</svg>
