<svg width="30" height="35" viewBox="0 0 30 35" fill="none" xmlns="http://www.w3.org/2000/svg">
<g clip-path="url(#clip0)">
<path d="M23.1564 0L19.3368 9.65068H11.4316L14.9435 0H23.1564Z" fill="#341E68"/>
<path d="M19.7006 7.98682H11.1378C10.5782 7.98682 10.1165 8.46429 10.1165 9.04304V14.6859H20.7219V9.04304C20.7219 8.44982 20.2602 7.98682 19.7006 7.98682ZM19.9664 10.0559H10.6761V9.62179C10.6761 9.15879 11.0399 8.76813 11.5016 8.76813H19.1549C19.6026 8.76813 19.9804 9.14432 19.9804 9.62179V10.0559H19.9664Z" fill="#BF5D46"/>
<path d="M7.73779 0L11.4315 9.65068H19.3367L15.7409 0H7.73779Z" fill="#5D2AD6"/>
<path d="M13.1803 9.65068L9.20676 0H8.75903L12.7186 9.65068H13.1803Z" fill="white"/>
<path d="M14.6356 9.65068L10.6621 0H10.2144L14.1739 9.65068H14.6356Z" fill="white"/>
<path d="M16.2865 9.65068L12.327 0H11.8652L15.8388 9.65068H16.2865Z" fill="white"/>
<path d="M17.8815 9.65068L13.9219 0H13.4602L17.4338 9.65068H17.8815Z" fill="white"/>
<path d="M26.5476 25.0114C27.5651 18.5276 23.3073 12.4184 17.0374 11.3661C10.7676 10.3139 4.86 14.717 3.84245 21.2008C2.82489 27.6845 7.08271 33.7937 13.3526 34.846C19.6224 35.8983 25.53 31.4952 26.5476 25.0114Z" fill="#FF921D"/>
<path d="M23.1423 14.5122C25.115 16.6536 26.3323 19.5473 26.3323 22.7305C26.3323 29.2993 21.1835 34.6238 14.8314 34.6238C11.7533 34.6238 8.94101 33.365 6.88428 31.3249C8.98298 33.5821 11.9212 35 15.1952 35C21.5472 35 26.6961 29.6755 26.6961 23.1067C26.6961 19.7354 25.3389 16.6825 23.1423 14.5122Z" fill="#DC7B43"/>
<path d="M24.4483 24.659C25.2777 19.3742 21.8072 14.3947 16.6967 13.537C11.5863 12.6793 6.77109 16.2682 5.94169 21.553C5.1123 26.8379 8.58278 31.8174 13.6932 32.6751C18.8037 33.5328 23.6189 29.9439 24.4483 24.659Z" fill="#FFA646"/>
<g opacity="0.69">
<g opacity="0.69">
<path opacity="0.69" d="M14.2718 29.9648C14.6355 30.2686 14.7335 30.7606 14.7335 30.7606C14.7335 30.7606 14.2438 30.775 13.866 30.4712C13.5022 30.1673 13.4043 29.6754 13.4043 29.6754C13.4043 29.6754 13.908 29.6609 14.2718 29.9648Z" fill="white"/>
<path opacity="0.69" d="M13.8241 30.7317C14.2718 30.5726 14.7335 30.7462 14.7335 30.7462C14.7335 30.7462 14.4817 31.1803 14.034 31.3394C13.5862 31.4986 13.1245 31.3249 13.1245 31.3249C13.1245 31.3249 13.3903 30.8909 13.8241 30.7317Z" fill="white"/>
</g>
<g opacity="0.69">
<path opacity="0.69" d="M12.8447 29.5597C13.1665 29.9069 13.1945 30.4133 13.1945 30.4133C13.1945 30.4133 12.7048 30.3554 12.383 30.0082C12.0612 29.6609 12.0332 29.1545 12.0332 29.1545C12.0332 29.1545 12.5229 29.2124 12.8447 29.5597Z" fill="white"/>
<path opacity="0.69" d="M12.2991 30.2686C12.7608 30.1673 13.1945 30.4133 13.1945 30.4133C13.1945 30.4133 12.8867 30.8039 12.425 30.9052C11.9633 31.0065 11.5295 30.7605 11.5295 30.7605C11.5295 30.7605 11.8374 30.3554 12.2991 30.2686Z" fill="white"/>
<path opacity="0.69" d="M11.7113 28.9809C11.9771 29.3716 11.9212 29.878 11.9212 29.878C11.9212 29.878 11.4455 29.7477 11.1796 29.3426C10.9138 28.952 10.9698 28.4456 10.9698 28.4456C10.9698 28.4456 11.4455 28.5902 11.7113 28.9809Z" fill="white"/>
<path opacity="0.69" d="M11.0678 29.5886C11.5435 29.5742 11.9352 29.878 11.9352 29.878C11.9352 29.878 11.5714 30.2253 11.0957 30.2397C10.62 30.2542 10.2283 29.9504 10.2283 29.9504C10.2283 29.9504 10.592 29.6176 11.0678 29.5886Z" fill="white"/>
<path opacity="0.69" d="M10.662 28.1127C10.8299 28.5612 10.662 29.0387 10.662 29.0387C10.662 29.0387 10.2283 28.7927 10.0744 28.3442C9.90648 27.8957 10.0744 27.4182 10.0744 27.4182C10.0744 27.4182 10.4941 27.6642 10.662 28.1127Z" fill="white"/>
<path opacity="0.69" d="M9.89252 28.5324C10.3542 28.6337 10.662 29.0244 10.662 29.0244C10.662 29.0244 10.2283 29.2703 9.7666 29.169C9.30488 29.0678 8.99707 28.6771 8.99707 28.6771C8.99707 28.6771 9.4308 28.4456 9.89252 28.5324Z" fill="white"/>
<path opacity="0.69" d="M9.86463 27.0855C9.92059 27.5629 9.64076 27.9825 9.64076 27.9825C9.64076 27.9825 9.27699 27.6353 9.22102 27.1578C9.16506 26.6803 9.44489 26.2607 9.44489 26.2607C9.44489 26.2607 9.80866 26.6225 9.86463 27.0855Z" fill="white"/>
<path opacity="0.69" d="M9.011 27.3313C9.43074 27.5339 9.64061 27.9969 9.64061 27.9969C9.64061 27.9969 9.16491 28.1271 8.73117 27.9245C8.31143 27.722 8.10156 27.259 8.10156 27.259C8.10156 27.259 8.59126 27.1288 9.011 27.3313Z" fill="white"/>
</g>
<g opacity="0.69">
<path opacity="0.69" d="M9.19293 25.8123C9.15096 26.2898 8.80118 26.6515 8.80118 26.6515C8.80118 26.6515 8.52135 26.2319 8.54933 25.7689C8.5913 25.2914 8.94109 24.9297 8.94109 24.9297C8.94109 24.9297 9.22092 25.3348 9.19293 25.8123Z" fill="white"/>
<path opacity="0.69" d="M8.31156 25.8701C8.68932 26.1595 8.80126 26.6514 8.80126 26.6514C8.80126 26.6514 8.31156 26.6804 7.93379 26.391C7.55602 26.1016 7.44409 25.6097 7.44409 25.6097C7.44409 25.6097 7.93379 25.5808 8.31156 25.8701Z" fill="white"/>
<path opacity="0.69" d="M8.84308 24.5968C8.73115 25.0598 8.3254 25.3637 8.3254 25.3637C8.3254 25.3637 8.10154 24.9151 8.21347 24.4521C8.3254 23.9891 8.73115 23.6853 8.73115 23.6853C8.73115 23.6853 8.95501 24.1338 8.84308 24.5968Z" fill="white"/>
<path opacity="0.69" d="M7.96148 24.5098C8.28328 24.857 8.32526 25.3635 8.32526 25.3635C8.32526 25.3635 7.83556 25.3056 7.49976 24.9728C7.16397 24.64 7.13599 24.1191 7.13599 24.1191C7.13599 24.1191 7.62569 24.1625 7.96148 24.5098Z" fill="white"/>
<path opacity="0.69" d="M8.80093 23.2367C8.57707 23.6563 8.11535 23.8444 8.11535 23.8444C8.11535 23.8444 8.01742 23.3525 8.22729 22.9329C8.45115 22.5133 8.91286 22.3252 8.91286 22.3252C8.91286 22.3252 9.02479 22.8027 8.80093 23.2367Z" fill="white"/>
<path opacity="0.69" d="M7.9615 22.933C8.19935 23.3526 8.11541 23.8445 8.11541 23.8445C8.11541 23.8445 7.65369 23.6709 7.41584 23.2658C7.17798 22.8462 7.26193 22.3542 7.26193 22.3542C7.26193 22.3542 7.73764 22.5134 7.9615 22.933Z" fill="white"/>
<path opacity="0.69" d="M9.03896 21.862C8.73115 22.2237 8.24146 22.2961 8.24146 22.2961C8.24146 22.2961 8.25545 21.7897 8.56326 21.428C8.87107 21.0662 9.36077 20.9939 9.36077 20.9939C9.36077 20.9939 9.34677 21.5003 9.03896 21.862Z" fill="white"/>
<path opacity="0.69" d="M8.29726 21.3702C8.43718 21.8332 8.2273 22.2962 8.2273 22.2962C8.2273 22.2962 7.80756 22.0213 7.68164 21.5583C7.54173 21.0953 7.7516 20.6323 7.7516 20.6323C7.7516 20.6323 8.15735 20.9072 8.29726 21.3702Z" fill="white"/>
</g>
<path opacity="0.69" d="M9.51452 20.7337C9.13675 21.0086 8.63306 20.9652 8.63306 20.9652C8.63306 20.9652 8.75898 20.4733 9.13675 20.1984C9.51452 19.9235 10.0182 19.9669 10.0182 19.9669C10.0182 19.9669 9.89228 20.4588 9.51452 20.7337Z" fill="white"/>
<path opacity="0.69" d="M8.89907 20.0826C8.92705 20.5601 8.63323 20.9652 8.63323 20.9652C8.63323 20.9652 8.29744 20.6035 8.26946 20.126C8.24147 19.6485 8.53529 19.2434 8.53529 19.2434C8.53529 19.2434 8.87109 19.6051 8.89907 20.0826Z" fill="white"/>
<path opacity="0.69" d="M10.1162 19.7066C9.69649 19.9236 9.20679 19.7934 9.20679 19.7934C9.20679 19.7934 9.40267 19.3304 9.82241 19.1133C10.2421 18.8963 10.7318 19.0265 10.7318 19.0265C10.7318 19.0265 10.536 19.504 10.1162 19.7066Z" fill="white"/>
<path opacity="0.69" d="M9.61249 18.9686C9.57052 19.4461 9.20674 19.7933 9.20674 19.7933C9.20674 19.7933 8.92692 19.3737 8.96889 18.8963C9.01086 18.4188 9.37464 18.0715 9.37464 18.0715C9.37464 18.0715 9.65447 18.4911 9.61249 18.9686Z" fill="white"/>
<g opacity="0.69">
<path opacity="0.69" d="M16.8182 29.8924C16.4544 30.1962 16.3564 30.6882 16.3564 30.6882C16.3564 30.6882 16.8461 30.7027 17.2239 30.3988C17.5877 30.095 17.6856 29.603 17.6856 29.603C17.6856 29.603 17.1819 29.603 16.8182 29.8924Z" fill="white"/>
<path opacity="0.69" d="M17.2659 30.6736C16.8182 30.5145 16.3564 30.6881 16.3564 30.6881C16.3564 30.6881 16.6083 31.1221 17.056 31.2813C17.5037 31.4405 17.9655 31.2668 17.9655 31.2668C17.9655 31.2668 17.6996 30.8328 17.2659 30.6736Z" fill="white"/>
</g>
<g opacity="0.69">
<path opacity="0.69" d="M18.0634 29.5594C17.7416 29.9067 17.7136 30.4131 17.7136 30.4131C17.7136 30.4131 18.2033 30.3552 18.5251 30.008C18.8469 29.6607 18.8749 29.1543 18.8749 29.1543C18.8749 29.1543 18.3852 29.2122 18.0634 29.5594Z" fill="white"/>
<path opacity="0.69" d="M18.6091 30.2686C18.1474 30.1673 17.7136 30.4133 17.7136 30.4133C17.7136 30.4133 18.0214 30.8039 18.4831 30.9052C18.9449 31.0065 19.3786 30.7605 19.3786 30.7605C19.3786 30.7605 19.0708 30.3554 18.6091 30.2686Z" fill="white"/>
<path opacity="0.69" d="M19.1967 28.9374C18.9309 29.3281 18.9868 29.8345 18.9868 29.8345C18.9868 29.8345 19.4626 29.7043 19.7284 29.2992C19.9942 28.9085 19.9383 28.4021 19.9383 28.4021C19.9383 28.4021 19.4626 28.5468 19.1967 28.9374Z" fill="white"/>
<path opacity="0.69" d="M19.8404 29.5449C19.3647 29.5305 18.9729 29.8343 18.9729 29.8343C18.9729 29.8343 19.3367 30.1816 19.8124 30.196C20.2881 30.2105 20.6798 29.9067 20.6798 29.9067C20.6798 29.9067 20.3021 29.5594 19.8404 29.5449Z" fill="white"/>
<path opacity="0.69" d="M20.204 28.0839C20.0361 28.5324 20.204 29.0099 20.204 29.0099C20.204 29.0099 20.6377 28.7639 20.7917 28.3154C20.9596 27.8669 20.7917 27.3894 20.7917 27.3894C20.7917 27.3894 20.3719 27.6354 20.204 28.0839Z" fill="white"/>
<path opacity="0.69" d="M20.9736 28.5176C20.5119 28.6189 20.2041 29.0096 20.2041 29.0096C20.2041 29.0096 20.6378 29.2555 21.0996 29.1543C21.5613 29.053 21.8691 28.6623 21.8691 28.6623C21.8691 28.6623 21.4353 28.4163 20.9736 28.5176Z" fill="white"/>
<path opacity="0.69" d="M21.0435 26.9986C20.9876 27.476 21.2674 27.8956 21.2674 27.8956C21.2674 27.8956 21.6312 27.5484 21.6871 27.0709C21.7431 26.5934 21.4633 26.1738 21.4633 26.1738C21.4633 26.1738 21.0995 26.5211 21.0435 26.9986Z" fill="white"/>
<path opacity="0.69" d="M21.8969 27.23C21.4772 27.4326 21.2673 27.8956 21.2673 27.8956C21.2673 27.8956 21.743 28.0258 22.1768 27.8232C22.5965 27.6207 22.8064 27.1577 22.8064 27.1577C22.8064 27.1577 22.3167 27.0274 21.8969 27.23Z" fill="white"/>
</g>
<g opacity="0.69">
<path opacity="0.69" d="M21.6452 25.7835C21.6872 26.2609 22.037 26.6227 22.037 26.6227C22.037 26.6227 22.3168 26.2031 22.2888 25.7401C22.2469 25.2626 21.8971 24.9009 21.8971 24.9009C21.8971 24.9009 21.6032 25.306 21.6452 25.7835Z" fill="white"/>
<path opacity="0.69" d="M22.5266 25.8411C22.1488 26.1305 22.0369 26.6224 22.0369 26.6224C22.0369 26.6224 22.5266 26.6514 22.9043 26.362C23.2821 26.0726 23.394 25.5807 23.394 25.5807C23.394 25.5807 22.9043 25.5662 22.5266 25.8411Z" fill="white"/>
<path opacity="0.69" d="M21.9952 24.568C22.1071 25.031 22.5129 25.3349 22.5129 25.3349C22.5129 25.3349 22.7368 24.8863 22.6248 24.4233C22.5129 23.9603 22.1071 23.6565 22.1071 23.6565C22.1071 23.6565 21.8833 24.105 21.9952 24.568Z" fill="white"/>
<path opacity="0.69" d="M22.8765 24.4812C22.5547 24.8285 22.5127 25.3349 22.5127 25.3349C22.5127 25.3349 23.0024 25.277 23.3382 24.9442C23.66 24.597 23.702 24.0906 23.702 24.0906C23.702 24.0906 23.1983 24.134 22.8765 24.4812Z" fill="white"/>
<path opacity="0.69" d="M22.0371 23.2514C22.261 23.671 22.7227 23.8591 22.7227 23.8591C22.7227 23.8591 22.8206 23.3671 22.6108 22.9475C22.3869 22.5279 21.9252 22.3398 21.9252 22.3398C21.9252 22.3398 21.8133 22.8318 22.0371 23.2514Z" fill="white"/>
<path opacity="0.69" d="M22.8624 22.9476C22.6245 23.3672 22.7085 23.8592 22.7085 23.8592C22.7085 23.8592 23.1702 23.6856 23.408 23.2804C23.6459 22.8608 23.5619 22.3689 23.5619 22.3689C23.5619 22.3689 23.1002 22.5425 22.8624 22.9476Z" fill="white"/>
<path opacity="0.69" d="M21.7852 21.8767C22.093 22.2384 22.5827 22.3107 22.5827 22.3107C22.5827 22.3107 22.5687 21.8043 22.2609 21.4426C21.9531 21.0809 21.4634 21.0085 21.4634 21.0085C21.4634 21.0085 21.4774 21.515 21.7852 21.8767Z" fill="white"/>
<path opacity="0.69" d="M22.5266 21.3849C22.3867 21.8479 22.5966 22.3109 22.5966 22.3109C22.5966 22.3109 23.0163 22.036 23.1422 21.573C23.2821 21.11 23.0723 20.647 23.0723 20.647C23.0723 20.647 22.6525 20.9363 22.5266 21.3849Z" fill="white"/>
</g>
<path opacity="0.69" d="M21.3233 20.7628C21.701 21.0377 22.2047 20.9943 22.2047 20.9943C22.2047 20.9943 22.0788 20.5023 21.701 20.2274C21.3233 19.9525 20.8196 19.9959 20.8196 19.9959C20.8196 19.9959 20.9315 20.4879 21.3233 20.7628Z" fill="white"/>
<path opacity="0.69" d="M21.925 20.1261C21.897 20.6035 22.1908 21.0086 22.1908 21.0086C22.1908 21.0086 22.5266 20.6469 22.5546 20.1695C22.5826 19.692 22.2888 19.2869 22.2888 19.2869C22.2888 19.2869 21.953 19.6486 21.925 20.1261Z" fill="white"/>
<path opacity="0.69" d="M20.6798 19.7498C21.0996 19.9668 21.5893 19.8366 21.5893 19.8366C21.5893 19.8366 21.3934 19.3736 20.9736 19.1566C20.5539 18.9395 20.0642 19.0697 20.0642 19.0697C20.0642 19.0697 20.2601 19.5472 20.6798 19.7498Z" fill="white"/>
<path opacity="0.69" d="M21.1835 19.0121C21.2255 19.4895 21.5892 19.8368 21.5892 19.8368C21.5892 19.8368 21.8691 19.4172 21.8271 18.9397C21.7851 18.4622 21.4213 18.115 21.4213 18.115C21.4213 18.115 21.1415 18.5346 21.1835 19.0121Z" fill="white"/>
<path opacity="0.69" d="M20.3442 18.303C20.3302 18.3174 20.3022 18.3464 20.2742 18.3609C20.2602 18.3609 20.2602 18.3753 20.2462 18.3753C21.7153 19.6775 22.6387 21.544 22.6387 23.6275C22.6387 27.5341 19.3927 30.7027 15.3912 30.7027C11.3897 30.7027 8.14367 27.5341 8.14367 23.6275C8.14367 21.6308 8.99714 19.8367 10.3543 18.5489C10.3123 18.5345 10.2704 18.52 10.2424 18.5055C8.88521 19.8077 8.03174 21.6308 8.03174 23.6275C8.03174 27.5919 11.3337 30.8185 15.3912 30.8185C19.4487 30.8185 22.7507 27.5919 22.7507 23.6275C22.7647 21.5151 21.8272 19.6196 20.3442 18.303Z" fill="white"/>
<path opacity="0.69" d="M11.0959 18.8095C10.6342 18.9108 10.2004 18.6793 10.2004 18.6793C10.2004 18.6793 10.5082 18.2741 10.97 18.1729C11.4317 18.0716 11.8654 18.3031 11.8654 18.3031C11.8654 18.3031 11.5436 18.7082 11.0959 18.8095Z" fill="white"/>
<path opacity="0.69" d="M10.7738 17.9702C10.6199 18.4187 10.1861 18.6792 10.1861 18.6792C10.1861 18.6792 10.0182 18.2017 10.1721 17.7532C10.326 17.3046 10.7598 17.0442 10.7598 17.0442C10.7598 17.0442 10.9417 17.5217 10.7738 17.9702Z" fill="white"/>
<path opacity="0.69" d="M19.7563 18.8095C20.2181 18.9108 20.6518 18.6793 20.6518 18.6793C20.6518 18.6793 20.344 18.2741 19.8823 18.1729C19.4205 18.0716 18.9868 18.3031 18.9868 18.3031C18.9868 18.3031 19.2946 18.7082 19.7563 18.8095Z" fill="white"/>
<path opacity="0.69" d="M20.0642 17.9702C20.2181 18.4187 20.6519 18.6792 20.6519 18.6792C20.6519 18.6792 20.8198 18.2017 20.6659 17.7532C20.5119 17.3046 20.0782 17.0442 20.0782 17.0442C20.0782 17.0442 19.9103 17.5217 20.0642 17.9702Z" fill="white"/>
</g>
<path d="M16.6223 22.0071C17.5458 22.2676 18.1054 22.8608 18.1054 23.8591C18.1054 26.232 14.8874 26.5793 12.7188 25.9571L12.8307 24.2932C13.6702 24.7417 15.0413 24.9153 15.7409 24.4379C16.3145 24.0472 16.2586 23.3093 15.8388 23.0055C15.3771 22.6727 14.6636 22.8029 13.992 22.774V21.3705H14.8454C16.5104 21.3705 16.5524 19.5619 14.8035 19.5619C14.2158 19.5619 13.6142 19.6921 13.0545 19.9091L12.9706 18.4189C13.3344 18.3031 13.7121 18.2163 14.0899 18.1584C18.2314 17.5218 18.3853 20.3721 17.6297 21.3271C17.4059 21.6599 17.0701 21.8769 16.6223 22.0071Z" fill="white"/>
</g>
<defs>
<clipPath id="clip0">
<rect width="30" height="35" fill="white"/>
</clipPath>
</defs>
</svg>
