<svg width="28" height="28" viewBox="0 0 28 28" fill="none" xmlns="http://www.w3.org/2000/svg">
<path fill-rule="evenodd" clip-rule="evenodd" d="M14 28C21.732 28 28 21.732 28 14C28 6.26801 21.732 0 14 0C6.26801 0 0 6.26801 0 14C0 21.732 6.26801 28 14 28Z" fill="#14CEDF"/>
<path fill-rule="evenodd" clip-rule="evenodd" d="M14 7C12.3431 7 11 8.34315 11 10C11 11.6569 12.3431 13 14 13C15.6569 13 17 11.6569 17 10C17 8.34315 15.6569 7 14 7ZM14 15C11.25 15 8.5 16 8.5 18.5C8.5 18.9659 8.5 19.1989 8.57612 19.3827C8.67761 19.6277 8.87229 19.8224 9.11732 19.9239C9.30109 20 9.53406 20 10 20H18C18.4659 20 18.6989 20 18.8827 19.9239C19.1277 19.8224 19.3224 19.6277 19.4239 19.3827C19.5 19.1989 19.5 18.9659 19.5 18.5C19.5 16 16.75 15 14 15Z" fill="white"/>
</svg>
