<svg width="24" height="35" viewBox="0 0 24 35" fill="none" xmlns="http://www.w3.org/2000/svg">
<g clip-path="url(#clip0)">
<path d="M20.3063 0L16.3209 9.65068H8.07275L11.737 0H20.3063Z" fill="#341D68"/>
<path d="M16.7007 7.98682H7.76638C7.18244 7.98682 6.70068 8.46429 6.70068 9.04304V14.6859H17.7664V9.04304C17.7664 8.44982 17.2846 7.98682 16.7007 7.98682ZM16.9781 10.0559H7.28463V9.62179C7.28463 9.15879 7.66419 8.76813 8.14594 8.76813H16.1313C16.5985 8.76813 16.9927 9.14432 16.9927 9.62179V10.0559H16.9781Z" fill="#E29044"/>
<path d="M4.21899 0L8.07301 9.65068H16.3212L12.5694 0H4.21899Z" fill="#5D2AD6"/>
<path d="M9.9854 9.65068L5.76642 0H5.28467L9.50364 9.65068H9.9854Z" fill="white"/>
<path d="M11.7664 9.65068L7.54743 0H7.06567L11.2847 9.65068H11.7664Z" fill="white"/>
<path d="M13.7372 9.65068L9.51818 0H9.05103L13.27 9.65068H13.7372Z" fill="white"/>
<path d="M15.4891 9.65068L11.2701 0H10.7883L15.0073 9.65068H15.4891Z" fill="white"/>
<path d="M22.7314 28.4246C25.6952 22.5497 23.2926 15.4059 17.365 12.4685C11.4374 9.53102 4.22959 11.9123 1.26581 17.7872C-1.69797 23.662 0.704651 30.8058 6.63221 33.7433C12.5598 36.6807 19.7676 34.2994 22.7314 28.4246Z" fill="#FFC83C"/>
<path d="M21.6496 16.0315C22.8613 17.8835 23.562 20.0972 23.562 22.4701C23.562 29.0389 18.1897 34.3634 11.562 34.3634C7.60578 34.3634 4.10213 32.468 1.91235 29.5453C4.04374 32.8297 7.76637 35.0001 11.9999 35.0001C18.6277 35.0001 23.9999 29.6756 23.9999 23.1067C23.9999 20.4589 23.124 18.0137 21.6496 16.0315Z" fill="#E39344"/>
<path d="M20.7468 27.4412C23.1626 22.6526 21.2042 16.8298 16.3728 14.4356C11.5413 12.0413 5.66627 13.9822 3.25054 18.7708C0.834804 23.5593 2.79314 29.3821 7.62461 31.7764C12.4561 34.1706 18.3311 32.2297 20.7468 27.4412Z" fill="#F6D845"/>
<path d="M10.8028 29.7043C11.1824 30.0081 11.2846 30.5001 11.2846 30.5001C11.2846 30.5001 10.7736 30.5145 10.3795 30.2107C9.99989 29.9068 9.89771 29.4149 9.89771 29.4149C9.89771 29.4149 10.4233 29.4004 10.8028 29.7043Z" fill="#F8ED7D"/>
<path d="M10.3356 30.4856C10.8028 30.3265 11.2845 30.5001 11.2845 30.5001C11.2845 30.5001 11.0218 30.9342 10.5546 31.0933C10.0875 31.2525 9.60571 31.0788 9.60571 31.0788C9.60571 31.0788 9.88309 30.6448 10.3356 30.4856Z" fill="#F8ED7D"/>
<path d="M9.31376 29.2992C9.64952 29.6464 9.67872 30.1528 9.67872 30.1528C9.67872 30.1528 9.16777 30.095 8.832 29.7477C8.49624 29.4005 8.46704 28.894 8.46704 28.894C8.46704 28.894 8.97799 28.9519 9.31376 29.2992Z" fill="#F8ED7D"/>
<path d="M8.74457 30.0081C9.22632 29.9068 9.67888 30.1528 9.67888 30.1528C9.67888 30.1528 9.35771 30.5435 8.87596 30.6447C8.3942 30.746 7.94165 30.5 7.94165 30.5C7.94165 30.5 8.26282 30.1094 8.74457 30.0081Z" fill="#F8ED7D"/>
<path d="M8.13139 28.7348C8.40876 29.1255 8.35037 29.6319 8.35037 29.6319C8.35037 29.6319 7.85402 29.5017 7.57664 29.0965C7.29927 28.7059 7.35767 28.1995 7.35767 28.1995C7.35767 28.1995 7.85402 28.3297 8.13139 28.7348Z" fill="#F8ED7D"/>
<path d="M7.4599 29.3423C7.95625 29.3278 8.36501 29.6317 8.36501 29.6317C8.36501 29.6317 7.98544 29.9789 7.48909 29.9934C6.99274 30.0079 6.58398 29.704 6.58398 29.704C6.58398 29.704 6.96355 29.3568 7.4599 29.3423Z" fill="#F8ED7D"/>
<path d="M7.03646 27.8522C7.21164 28.3008 7.03646 28.7782 7.03646 28.7782C7.03646 28.7782 6.5839 28.5323 6.42332 28.0837C6.24814 27.6352 6.42332 27.1577 6.42332 27.1577C6.42332 27.1577 6.86127 27.4037 7.03646 27.8522Z" fill="#F8ED7D"/>
<path d="M6.23362 28.2862C6.71538 28.3875 7.03654 28.7781 7.03654 28.7781C7.03654 28.7781 6.58399 29.0241 6.10224 28.9228C5.62048 28.8215 5.29932 28.4309 5.29932 28.4309C5.29932 28.4309 5.75187 28.1849 6.23362 28.2862Z" fill="#F8ED7D"/>
<path d="M6.2044 26.8394C6.2628 27.3168 5.97083 27.7364 5.97083 27.7364C5.97083 27.7364 5.59126 27.3892 5.53287 26.9117C5.47447 26.4342 5.76645 26.0146 5.76645 26.0146C5.76645 26.0146 6.14601 26.3619 6.2044 26.8394Z" fill="#F8ED7D"/>
<path d="M5.3139 27.0711C5.75185 27.2736 5.97083 27.7366 5.97083 27.7366C5.97083 27.7366 5.47448 27.8669 5.02192 27.6643C4.58397 27.4617 4.36499 26.9987 4.36499 26.9987C4.36499 26.9987 4.87594 26.8685 5.3139 27.0711Z" fill="#F8ED7D"/>
<path d="M5.50366 25.5515C5.45987 26.029 5.0949 26.3907 5.0949 26.3907C5.0949 26.3907 4.80293 25.9711 4.83213 25.5081C4.87593 25.0307 5.24089 24.6689 5.24089 24.6689C5.24089 24.6689 5.53286 25.0741 5.50366 25.5515Z" fill="#F8ED7D"/>
<path d="M4.58406 25.6094C4.97822 25.8988 5.09501 26.3907 5.09501 26.3907C5.09501 26.3907 4.58406 26.4196 4.1899 26.1303C3.79574 25.8409 3.67896 25.3489 3.67896 25.3489C3.67896 25.3489 4.1899 25.32 4.58406 25.6094Z" fill="#F8ED7D"/>
<path d="M5.13861 24.3363C5.02182 24.7993 4.59846 25.1032 4.59846 25.1032C4.59846 25.1032 4.36489 24.6547 4.48168 24.1917C4.59846 23.7286 5.02182 23.4248 5.02182 23.4248C5.02182 23.4248 5.2554 23.8733 5.13861 24.3363Z" fill="#F8ED7D"/>
<path d="M4.21898 24.2493C4.55475 24.5966 4.59854 25.103 4.59854 25.103C4.59854 25.103 4.08759 25.0451 3.73723 24.7123C3.40146 24.3651 3.35767 23.8586 3.35767 23.8586C3.35767 23.8586 3.86861 23.9021 4.21898 24.2493Z" fill="#F8ED7D"/>
<path d="M5.09486 22.9762C4.86128 23.3958 4.37953 23.5839 4.37953 23.5839C4.37953 23.5839 4.27734 23.092 4.49632 22.6724C4.72989 22.2528 5.21165 22.0647 5.21165 22.0647C5.21165 22.0647 5.32843 22.5566 5.09486 22.9762Z" fill="#F8ED7D"/>
<path d="M4.2188 22.6725C4.46698 23.0921 4.37939 23.584 4.37939 23.584C4.37939 23.584 3.89763 23.4104 3.64946 23.0053C3.40128 22.5857 3.48887 22.0938 3.48887 22.0938C3.48887 22.0938 3.98522 22.2674 4.2188 22.6725Z" fill="#F8ED7D"/>
<path d="M5.3431 21.6015C5.02194 21.9632 4.51099 22.0356 4.51099 22.0356C4.51099 22.0356 4.52559 21.5292 4.84675 21.1675C5.16792 20.8057 5.67887 20.7334 5.67887 20.7334C5.67887 20.7334 5.66427 21.2398 5.3431 21.6015Z" fill="#F8ED7D"/>
<path d="M4.56947 21.1097C4.71545 21.5727 4.49648 22.0357 4.49648 22.0357C4.49648 22.0357 4.05852 21.7608 3.92714 21.2978C3.78115 20.8348 4.00013 20.3718 4.00013 20.3718C4.00013 20.3718 4.42348 20.6612 4.56947 21.1097Z" fill="#F8ED7D"/>
<path d="M5.83939 20.4732C5.44523 20.7481 4.91968 20.7047 4.91968 20.7047C4.91968 20.7047 5.05106 20.2128 5.44523 19.9379C5.83939 19.663 6.36493 19.7064 6.36493 19.7064C6.36493 19.7064 6.23355 20.1983 5.83939 20.4732Z" fill="#F8ED7D"/>
<path d="M5.19698 19.8221C5.22618 20.2996 4.91961 20.7047 4.91961 20.7047C4.91961 20.7047 4.56924 20.343 4.54005 19.8655C4.51085 19.388 4.81742 18.9829 4.81742 18.9829C4.81742 18.9829 5.16778 19.3446 5.19698 19.8221Z" fill="#F8ED7D"/>
<path d="M6.46722 19.4461C6.02926 19.6631 5.51831 19.5329 5.51831 19.5329C5.51831 19.5329 5.72269 19.0699 6.16065 18.8529C6.5986 18.6358 7.10955 18.766 7.10955 18.766C7.10955 18.766 6.90517 19.2435 6.46722 19.4461Z" fill="#F8ED7D"/>
<path d="M5.94163 18.7081C5.89784 19.1856 5.51828 19.5328 5.51828 19.5328C5.51828 19.5328 5.22631 19.1132 5.2701 18.6358C5.3139 18.1583 5.69346 17.811 5.69346 17.811C5.69346 17.811 5.98543 18.2451 5.94163 18.7081Z" fill="#F8ED7D"/>
<path d="M13.46 29.6464C13.0805 29.9503 12.9783 30.4422 12.9783 30.4422C12.9783 30.4422 13.4892 30.4567 13.8834 30.1528C14.2629 29.849 14.3651 29.357 14.3651 29.357C14.3651 29.357 13.8396 29.3426 13.46 29.6464Z" fill="#F8ED7D"/>
<path d="M13.9272 30.4134C13.46 30.2542 12.9783 30.4278 12.9783 30.4278C12.9783 30.4278 13.241 30.8619 13.7082 31.0211C14.1754 31.1802 14.6571 31.0066 14.6571 31.0066C14.6571 31.0066 14.3797 30.5725 13.9272 30.4134Z" fill="#F8ED7D"/>
<path d="M14.759 29.2992C14.4232 29.6464 14.394 30.1528 14.394 30.1528C14.394 30.1528 14.905 30.095 15.2408 29.7477C15.5765 29.4005 15.6057 28.894 15.6057 28.894C15.6057 28.894 15.0948 28.9519 14.759 29.2992Z" fill="#F8ED7D"/>
<path d="M15.3283 30.0083C14.8466 29.9071 14.394 30.153 14.394 30.153C14.394 30.153 14.7152 30.5437 15.197 30.645C15.6787 30.7463 16.1313 30.5003 16.1313 30.5003C16.1313 30.5003 15.8101 30.1096 15.3283 30.0083Z" fill="#F8ED7D"/>
<path d="M15.9414 28.6772C15.664 29.0678 15.7224 29.5743 15.7224 29.5743C15.7224 29.5743 16.2188 29.444 16.4961 29.0389C16.7735 28.6483 16.7151 28.1418 16.7151 28.1418C16.7151 28.1418 16.2188 28.2865 15.9414 28.6772Z" fill="#F8ED7D"/>
<path d="M16.6131 29.2847C16.1168 29.2702 15.708 29.5741 15.708 29.5741C15.708 29.5741 16.0876 29.9213 16.5839 29.9358C17.0803 29.9502 17.489 29.6464 17.489 29.6464C17.489 29.6464 17.0949 29.3136 16.6131 29.2847Z" fill="#F8ED7D"/>
<path d="M16.9927 27.8234C16.8175 28.2719 16.9927 28.7494 16.9927 28.7494C16.9927 28.7494 17.4452 28.5034 17.6058 28.0549C17.781 27.6064 17.6058 27.1289 17.6058 27.1289C17.6058 27.1289 17.1678 27.3749 16.9927 27.8234Z" fill="#F8ED7D"/>
<path d="M17.8102 28.2576C17.3285 28.3589 17.0073 28.7496 17.0073 28.7496C17.0073 28.7496 17.4599 28.9955 17.9416 28.8942C18.4234 28.793 18.7446 28.4023 18.7446 28.4023C18.7446 28.4023 18.2774 28.1563 17.8102 28.2576Z" fill="#F8ED7D"/>
<path d="M17.8686 26.7383C17.8102 27.2158 18.1021 27.6354 18.1021 27.6354C18.1021 27.6354 18.4817 27.2881 18.5401 26.8106C18.5985 26.3332 18.3065 25.9136 18.3065 25.9136C18.3065 25.9136 17.927 26.2608 17.8686 26.7383Z" fill="#F8ED7D"/>
<path d="M18.759 26.9697C18.321 27.1723 18.1021 27.6353 18.1021 27.6353C18.1021 27.6353 18.5984 27.7655 19.051 27.563C19.4889 27.3604 19.7079 26.8974 19.7079 26.8974C19.7079 26.8974 19.1969 26.7672 18.759 26.9697Z" fill="#F8ED7D"/>
<path d="M18.4965 25.5374C18.5403 26.0149 18.9052 26.3766 18.9052 26.3766C18.9052 26.3766 19.1972 25.957 19.168 25.494C19.1242 25.0165 18.7592 24.6548 18.7592 24.6548C18.7592 24.6548 18.4527 25.0599 18.4965 25.5374Z" fill="#F8ED7D"/>
<path d="M19.416 25.5809C19.0218 25.8703 18.905 26.3622 18.905 26.3622C18.905 26.3622 19.416 26.3911 19.8101 26.1018C20.2043 25.8124 20.3211 25.3204 20.3211 25.3204C20.3211 25.3204 19.8101 25.306 19.416 25.5809Z" fill="#F8ED7D"/>
<path d="M18.8613 24.3075C18.9781 24.7705 19.4015 25.0744 19.4015 25.0744C19.4015 25.0744 19.635 24.6258 19.5183 24.1628C19.4015 23.6998 18.9781 23.396 18.9781 23.396C18.9781 23.396 18.7445 23.8445 18.8613 24.3075Z" fill="#F8ED7D"/>
<path d="M19.7812 24.2207C19.4454 24.568 19.4016 25.0744 19.4016 25.0744C19.4016 25.0744 19.9126 25.0165 20.2629 24.6837C20.5987 24.3365 20.6425 23.8301 20.6425 23.8301C20.6425 23.8301 20.1169 23.8735 19.7812 24.2207Z" fill="#F8ED7D"/>
<path d="M18.9053 22.9909C19.1388 23.4105 19.6206 23.5986 19.6206 23.5986C19.6206 23.5986 19.7228 23.1066 19.5038 22.687C19.2702 22.2674 18.7885 22.0793 18.7885 22.0793C18.7885 22.0793 18.6717 22.5713 18.9053 22.9909Z" fill="#F8ED7D"/>
<path d="M19.7664 22.7016C19.5182 23.1211 19.6058 23.6131 19.6058 23.6131C19.6058 23.6131 20.0876 23.4395 20.3357 23.0343C20.5839 22.6147 20.4963 22.1228 20.4963 22.1228C20.4963 22.1228 20.0146 22.282 19.7664 22.7016Z" fill="#F8ED7D"/>
<path d="M18.6424 21.6162C18.9636 21.9779 19.4745 22.0502 19.4745 22.0502C19.4745 22.0502 19.4599 21.5438 19.1388 21.1821C18.8176 20.8204 18.3066 20.748 18.3066 20.748C18.3066 20.748 18.3212 21.2689 18.6424 21.6162Z" fill="#F8ED7D"/>
<path d="M19.4161 21.1244C19.2702 21.5874 19.4891 22.0504 19.4891 22.0504C19.4891 22.0504 19.9271 21.7755 20.0585 21.3125C20.2045 20.8495 19.9855 20.3865 19.9855 20.3865C19.9855 20.3865 19.5475 20.6759 19.4161 21.1244Z" fill="#F8ED7D"/>
<path d="M18.1606 20.5167C18.5547 20.7916 19.0803 20.7482 19.0803 20.7482C19.0803 20.7482 18.9489 20.2562 18.5547 19.9813C18.1606 19.7064 17.635 19.7498 17.635 19.7498C17.635 19.7498 17.7518 20.2418 18.1606 20.5167Z" fill="#F8ED7D"/>
<path d="M18.7883 19.8656C18.7591 20.343 19.0657 20.7482 19.0657 20.7482C19.0657 20.7482 19.4161 20.3864 19.4453 19.909C19.4745 19.4315 19.1679 19.0264 19.1679 19.0264C19.1679 19.0264 18.8175 19.3881 18.7883 19.8656Z" fill="#F8ED7D"/>
<path d="M17.489 19.5039C17.927 19.721 18.4379 19.5907 18.4379 19.5907C18.4379 19.5907 18.2335 19.1277 17.7956 18.9107C17.3576 18.6937 16.8467 18.8239 16.8467 18.8239C16.8467 18.8239 17.0511 19.2869 17.489 19.5039Z" fill="#F8ED7D"/>
<path d="M18.0145 18.766C18.0583 19.2434 18.4378 19.5907 18.4378 19.5907C18.4378 19.5907 18.7298 19.1711 18.686 18.6936C18.6422 18.2161 18.2627 17.8689 18.2627 17.8689C18.2627 17.8689 17.9707 18.2885 18.0145 18.766Z" fill="#F8ED7D"/>
<path d="M17.1387 18.0425C17.1241 18.0569 17.0949 18.0859 17.0657 18.1004C17.0511 18.1004 17.0511 18.1148 17.0365 18.1148C18.5694 19.417 19.5329 21.2835 19.5329 23.367C19.5329 27.2736 16.146 30.4422 11.9708 30.4422C7.79564 30.4422 4.40878 27.2736 4.40878 23.367C4.40878 21.3703 5.29929 19.5762 6.71535 18.2885C6.67155 18.274 6.62776 18.2595 6.59856 18.245C5.1825 19.5472 4.29199 21.3703 4.29199 23.367C4.29199 27.3314 7.73725 30.558 11.9708 30.558C16.2044 30.558 19.6497 27.3314 19.6497 23.367C19.6643 21.2546 18.6862 19.3591 17.1387 18.0425Z" fill="#F8ED7D"/>
<path d="M7.48924 18.549C7.00749 18.6503 6.55493 18.4188 6.55493 18.4188C6.55493 18.4188 6.8761 18.0136 7.35785 17.9124C7.8396 17.8111 8.29216 18.0426 8.29216 18.0426C8.29216 18.0426 7.95639 18.4477 7.48924 18.549Z" fill="#F8ED7D"/>
<path d="M7.15328 17.7097C6.99269 18.1582 6.54014 18.4187 6.54014 18.4187C6.54014 18.4187 6.36495 17.9412 6.52554 17.4927C6.68612 17.0441 7.13868 16.7837 7.13868 16.7837C7.13868 16.7837 7.32846 17.2612 7.15328 17.7097Z" fill="#F8ED7D"/>
<path d="M16.5256 18.549C17.0073 18.6503 17.4599 18.4188 17.4599 18.4188C17.4599 18.4188 17.1387 18.0136 16.657 17.9124C16.1752 17.8111 15.7227 18.0426 15.7227 18.0426C15.7227 18.0426 16.0438 18.4477 16.5256 18.549Z" fill="#F8ED7D"/>
<path d="M16.8468 17.7097C17.0074 18.1582 17.46 18.4187 17.46 18.4187C17.46 18.4187 17.6351 17.9412 17.4746 17.4927C17.314 17.0441 16.8614 16.7837 16.8614 16.7837C16.8614 16.7837 16.6862 17.2612 16.8468 17.7097Z" fill="#F8ED7D"/>
<path d="M11.5765 18.8528H13.2699V26.9119H11.2845V21.0231L9.78089 22.0504L8.81738 20.6614L11.5765 18.8528Z" fill="white"/>
</g>
<defs>
<clipPath id="clip0">
<rect width="24" height="35" fill="white"/>
</clipPath>
</defs>
</svg>
