<svg width="22" height="19" viewBox="0 0 22 19" fill="none" xmlns="http://www.w3.org/2000/svg">
<path fill-rule="evenodd" clip-rule="evenodd" d="M8.67968 2.46616C8.67968 1.16335 9.64731 0.0965004 10.8732 0.00619125L11.0419 0C11.5702 0 12.0833 0.184902 12.4991 0.525154L21.0949 7.55894C22.1217 8.39915 22.3017 9.94929 21.4969 11.0213C21.3796 11.1776 21.2446 11.3185 21.0949 11.4409L12.4991 18.4747C11.4723 19.3149 9.98748 19.127 9.1827 18.0551C8.85679 17.6209 8.67968 17.0853 8.67968 16.534L8.67859 13.6729L8.44402 13.7025C5.91849 14.0546 3.63573 15.3988 2.03239 17.448L1.82715 17.7192C1.28338 18.4626 0.148825 18.1282 0.0576079 17.1978C0.0193446 16.8075 0 16.4139 0 16.019C0 10.584 3.67654 5.97723 8.65614 4.90016L8.67859 4.89454L8.67968 2.46616ZM11.2164 2.08624C11.1484 2.03036 11.0645 2 10.9781 2C10.7647 2 10.5918 2.18131 10.5918 2.40525L10.5909 5.73991C10.5908 6.26616 10.2161 6.70959 9.71776 6.7733C5.81765 7.27187 2.73579 10.3842 2.02627 14.336L2 14.4926L2.19238 14.3264C4.09287 12.7312 6.43578 11.7569 8.94587 11.589L9.3236 11.5699L9.58094 11.5654C10.1358 11.5559 10.5905 12.0246 10.5907 12.6063L10.5918 16.595C10.5918 16.6856 10.6207 16.7735 10.674 16.8448C10.8057 17.0209 11.0485 17.0517 11.2164 16.9137L19.852 9.81872C19.8765 9.79861 19.8985 9.77547 19.9177 9.74981C20.0493 9.57378 20.0199 9.31923 19.852 9.18126L11.2164 2.08624Z" fill="white"/>
</svg>
