<svg width="375" height="573" viewBox="0 0 375 573" fill="none" xmlns="http://www.w3.org/2000/svg">
<circle cx="42.3953" cy="14.8605" r="5.86047" fill="#7342EA"/>
<circle cx="65" cy="14.8605" r="5.86047" fill="#7342EA"/>
<circle cx="87.6047" cy="14.8605" r="5.86047" fill="#7342EA"/>
<circle cx="87.6047" cy="45" r="5.86047" fill="#7342EA"/>
<circle cx="65" cy="45" r="5.86047" fill="#7342EA"/>
<circle cx="42.3953" cy="45" r="5.86047" fill="#7342EA"/>
<circle cx="42.3953" cy="75.1395" r="5.86047" fill="#7342EA"/>
<circle cx="65" cy="75.1395" r="5.86047" fill="#7342EA"/>
<circle cx="87.6047" cy="75.1395" r="5.86047" fill="#7342EA"/>
<circle cx="401.5" cy="155.5" r="77.5" stroke="#7342EA" stroke-width="12"/>
<path d="M288.236 470.404L282.174 470.404L285.205 475.654L293.724 490.409L302.243 505.164L305.514 510.83L308.412 504.964L322.989 475.454L325.484 470.404L319.851 470.404L288.236 470.404Z" stroke="#FF921D" stroke-width="7"/>
<circle cx="262" cy="594" r="43" fill="#7342EA"/>
<circle cx="308.5" cy="32.5" r="26.5" stroke="#14CEDF" stroke-width="12"/>
<path d="M56 162.5C56 192.6 31.5995 217 1.5 217C-28.5995 217 -53 192.6 -53 162.5C-53 132.4 -28.5995 108 1.5 108C31.5995 108 56 132.4 56 162.5Z" fill="#FF921D"/>
<circle cx="-15.5" cy="572.5" r="51.5" stroke="#FF921D" stroke-width="12"/>
</svg>
