<svg width="111" height="111" viewBox="0 0 111 111" fill="none" xmlns="http://www.w3.org/2000/svg">
<g filter="url(#filter0_d)">
<rect x="4" width="103" height="103" rx="19" fill="#7342EA"/>
<path d="M79.4991 14C81.1528 14 82.5145 15.2253 82.6918 16.8006L84.5016 16.8C85.8125 16.8 86.8875 17.79 86.9917 19.0491L87 19.25V23.45C87 25.8762 85.0635 27.8589 82.6235 27.9928L82.3233 28.001C81.3699 30.9273 78.7565 33.1261 75.5691 33.5324L75.5682 35.7H78.0715C80.5456 35.7 82.5675 37.599 82.704 39.9918L82.7113 40.25V40.95C82.7113 41.4816 82.3085 41.9209 81.7859 41.9904L81.6406 42H67.36C66.8179 42 66.3699 41.605 66.299 41.0925L66.2893 40.95V40.25C66.2893 37.8238 68.2258 35.8411 70.6658 35.7072L70.9291 35.7H73.4267L73.4272 33.5319C70.2418 33.1241 67.6303 30.926 66.6773 28.001L66.6398 28C64.0773 28 62 25.9629 62 23.45V19.25C62 17.8969 63.1185 16.8 64.4984 16.8L66.3088 16.8006C66.4861 15.2253 67.8478 14 69.5014 14H79.4991ZM84.5016 18.9H82.7113V25.876C83.8535 25.7185 84.7477 24.8036 84.849 23.6658L84.8586 23.45V19.25C84.8586 19.0843 84.7412 18.9455 84.5835 18.9092L84.5016 18.9ZM66.2893 18.9H64.4984C64.3012 18.9 64.1414 19.0567 64.1414 19.25V23.45C64.1414 24.6864 65.0754 25.7089 66.2893 25.8761V18.9Z" fill="white"/>
<g filter="url(#filter1_d)">
<path d="M29.9323 44.6883H29.9322L29.9322 44.6923L29.9286 60.3933V60.3934C29.9286 66.3879 30.3614 68.8532 31.654 71.3973C32.7323 73.5196 34.2932 75.1652 36.2954 76.2923C38.2856 77.4127 40.2141 77.9053 44.1158 78.035L44.1193 78.0351L44.9182 78.0561L44.9182 78.0562L44.9268 78.0562L46.5896 78.0714H46.5941L63.4059 78.0715L63.4104 78.0714L65.0732 78.0563L65.0786 78.0562C69.5268 77.9681 71.5805 77.4881 73.7046 76.2923C75.7068 75.1652 77.2677 73.5196 78.346 71.3973C79.4296 69.2645 79.9092 67.1889 80.0358 63.0325L80.0359 63.0293L80.0564 62.177H80.0565L80.0565 62.1691L80.0714 60.3976V60.3934V53C80.0714 51.5798 81.2227 50.4286 82.6429 50.4286C83.9565 50.4286 85.0407 51.414 85.1953 52.6857L85.2143 53.0144V60.3934C85.2143 67.2258 84.6142 70.414 82.9311 73.7268C81.3941 76.7518 79.1171 79.1471 76.2275 80.7738C73.2041 82.4758 70.277 83.1432 64.4133 83.2088C64.4129 83.2088 64.4124 83.2089 64.412 83.2089L63.4059 83.2143H63.4046H46.5941C40.0466 83.2143 36.9632 82.5701 33.7725 80.7738C30.8829 79.1471 28.6059 76.7518 27.0689 73.7268C25.4699 70.5795 24.8485 67.5443 24.7903 61.394C24.7903 61.3932 24.7903 61.3925 24.7903 61.3917L24.7857 45.6066C24.7857 45.6066 24.7857 45.6065 24.7857 45.6065C24.7857 38.7742 25.3858 35.586 27.0689 32.2732C28.6059 29.2482 30.8829 26.8529 33.7725 25.2262C36.7956 23.5243 39.7226 22.8569 45.5854 22.7912C45.5863 22.7912 45.5871 22.7912 45.588 22.7912L52.2357 22.7857C52.2358 22.7857 52.2358 22.7857 52.2359 22.7857C53.656 22.7858 54.8071 23.937 54.8071 25.3571C54.8071 26.6708 53.8217 27.755 52.55 27.9096L52.2213 27.9286H46.5941C40.9594 27.9286 38.6703 28.3707 36.2954 29.7077C34.2932 30.8348 32.7323 32.4804 31.654 34.6027C30.4294 37.0129 29.9767 39.3511 29.9323 44.6883Z" fill="white" stroke="#7342EA"/>
<path d="M55 42C61.6274 42 67 47.1487 67 53.5C67 59.8513 61.6274 65 55 65C48.3726 65 43 59.8513 43 53.5C43 47.1487 48.3726 42 55 42Z" fill="white"/>
<path d="M55 45C50.5817 45 47 48.5817 47 53C47 57.4183 50.5817 61 55 61C59.4183 61 63 57.4183 63 53C63 48.5817 59.4183 45 55 45Z" fill="#7342EA"/>
</g>
</g>
<defs>
<filter id="filter0_d" x="0" y="0" width="111" height="111" filterUnits="userSpaceOnUse" color-interpolation-filters="sRGB">
<feFlood flood-opacity="0" result="BackgroundImageFix"/>
<feColorMatrix in="SourceAlpha" type="matrix" values="0 0 0 0 0 0 0 0 0 0 0 0 0 0 0 0 0 0 127 0"/>
<feOffset dy="4"/>
<feGaussianBlur stdDeviation="2"/>
<feColorMatrix type="matrix" values="0 0 0 0 0 0 0 0 0 0 0 0 0 0 0 0 0 0 0.25 0"/>
<feBlend mode="normal" in2="BackgroundImageFix" result="effect1_dropShadow"/>
<feBlend mode="normal" in="SourceGraphic" in2="effect1_dropShadow" result="shape"/>
</filter>
<filter id="filter1_d" x="24.2857" y="22.2857" width="61.4286" height="61.4286" filterUnits="userSpaceOnUse" color-interpolation-filters="sRGB">
<feFlood flood-opacity="0" result="BackgroundImageFix"/>
<feColorMatrix in="SourceAlpha" type="matrix" values="0 0 0 0 0 0 0 0 0 0 0 0 0 0 0 0 0 0 127 0"/>
<feOffset/>
<feColorMatrix type="matrix" values="0 0 0 0 0 0 0 0 0 0 0 0 0 0 0 0 0 0 0.08 0"/>
<feBlend mode="normal" in2="BackgroundImageFix" result="effect1_dropShadow"/>
<feBlend mode="normal" in="SourceGraphic" in2="effect1_dropShadow" result="shape"/>
</filter>
</defs>
</svg>
