<svg width="14" height="18" viewBox="0 0 14 18" fill="none" xmlns="http://www.w3.org/2000/svg">
<path d="M12.0322 10.7977C13.119 10.7977 14 11.704 14 12.822V13.34C14 14.145 13.7203 14.9235 13.2115 15.535C11.8383 17.1855 9.74941 18 6.99712 18C4.2444 18 2.15658 17.1852 0.786019 15.5341C0.278712 14.923 0 14.1457 0 13.342V12.822C0 11.704 0.881026 10.7977 1.96783 10.7977H12.0322ZM12.0322 12.1479H1.96783C1.60592 12.1479 1.31254 12.4497 1.31254 12.822V13.342C1.31254 13.8242 1.47977 14.2906 1.78415 14.6573C2.88083 15.9784 4.60103 16.6498 6.99712 16.6498C9.39321 16.6498 11.1149 15.9784 12.2144 14.657C12.5197 14.2901 12.6875 13.823 12.6875 13.34V12.822C12.6875 12.4497 12.3941 12.1479 12.0322 12.1479ZM6.99712 0C9.41343 0 11.3722 2.01508 11.3722 4.5008C11.3722 6.98652 9.41343 9.0016 6.99712 9.0016C4.5808 9.0016 2.62198 6.98652 2.62198 4.5008C2.62198 2.01508 4.5808 0 6.99712 0ZM6.99712 1.35024C5.30569 1.35024 3.93452 2.76079 3.93452 4.5008C3.93452 6.24081 5.30569 7.65136 6.99712 7.65136C8.68854 7.65136 10.0597 6.24081 10.0597 4.5008C10.0597 2.76079 8.68854 1.35024 6.99712 1.35024Z" fill="#EAE1FF"/>
</svg>
