<svg width="22" height="23" viewBox="0 0 22 23" fill="none" xmlns="http://www.w3.org/2000/svg">
<path d="M9.1 3C9.65229 3 10.1 3.44772 10.1 4C10.1 4.51284 9.71396 4.93551 9.21662 4.99327L9.1 5H7.26321C5.43543 5 4.72535 5.14434 3.98998 5.55832C3.36715 5.90895 2.88115 6.42052 2.5441 7.08393C2.16254 7.83494 2.0156 8.56593 2.00119 10.2952L2 15.4072C2 17.3529 2.14134 18.1233 2.5441 18.9161C2.88115 19.5795 3.36715 20.0911 3.98998 20.4417C4.60682 20.7889 5.20587 20.9465 6.46171 20.9882L6.72183 20.9951L7.26321 21H12.7368L13.2782 20.9951C14.7143 20.9666 15.3521 20.8121 16.01 20.4417C16.6329 20.0911 17.1188 19.5795 17.4559 18.9161C17.7937 18.2511 17.9476 17.6019 17.9885 16.2614L17.9952 15.9839L18 15.4072V13C18 12.4477 18.4477 12 19 12C19.5128 12 19.9355 12.386 19.9933 12.8834L20 13V15.4072C20 17.6416 19.804 18.7098 19.239 19.822C18.7244 20.8348 17.9607 21.6387 16.9911 22.1845C15.9734 22.7575 14.9894 22.9767 13.0662 22.9982L12.7368 23H7.26321C5.11979 23 4.08318 22.7893 3.00886 22.1845C2.03931 21.6387 1.27559 20.8348 0.761035 19.822C0.224218 18.7654 0.0205192 17.7485 0.00149138 15.7337L0 10.5928C0 8.35841 0.195965 7.29021 0.761035 6.17801C1.27559 5.16523 2.03931 4.36132 3.00886 3.81551C4.02663 3.24255 5.01057 3.02327 6.9338 3.00178L9.1 3Z" fill="white"/>
<path fill-rule="evenodd" clip-rule="evenodd" d="M5 13C5 10.2386 7.23858 8 10 8C12.7614 8 15 10.2386 15 13C15 15.7614 12.7614 18 10 18C7.23858 18 5 15.7614 5 13ZM7 13C7 11.3431 8.34315 10 10 10C11.6569 10 13 11.3431 13 13C13 14.6569 11.6569 16 10 16C8.34315 16 7 14.6569 7 13Z" fill="white"/>
<path d="M17 0C17.5128 0 17.9355 0.38604 17.9933 0.883379L18 1V4H21C21.5128 4 21.9355 4.38604 21.9933 4.88338L22 5C22 5.51284 21.614 5.93551 21.1166 5.99327L21 6H18V9C18 9.55229 17.5523 10 17 10C16.4872 10 16.0645 9.61396 16.0067 9.11662L16 9V6H13C12.4872 6 12.0645 5.61396 12.0067 5.11662L12 5C12 4.48716 12.386 4.06449 12.8834 4.00673L13 4H16V1C16 0.447715 16.4477 0 17 0Z" fill="white"/>
</svg>
