<svg width="16" height="18" viewBox="0 0 16 18" fill="none" xmlns="http://www.w3.org/2000/svg">
<path d="M7.92614 2.30769C12.3036 2.30769 15.8523 5.82053 15.8523 10.1538C15.8523 14.4872 12.3036 18 7.92614 18C3.54865 18 0 14.4872 0 10.1538C0 5.82053 3.54865 2.30769 7.92614 2.30769ZM7.92614 3.69231C4.32115 3.69231 1.39873 6.58524 1.39873 10.1538C1.39873 13.7225 4.32115 16.6154 7.92614 16.6154C11.5311 16.6154 14.4535 13.7225 14.4535 10.1538C14.4535 6.58524 11.5311 3.69231 7.92614 3.69231ZM7.92614 5.07692C8.2802 5.07692 8.57281 5.33737 8.61912 5.67529L8.6255 5.76923V9.92308C8.6255 10.3054 8.31239 10.6154 7.92614 10.6154C7.57208 10.6154 7.27947 10.3549 7.23316 10.017L7.22677 9.92308V5.76923C7.22677 5.38688 7.53989 5.07692 7.92614 5.07692ZM14.5908 2.41265L14.6678 2.46789L15.748 3.3579C16.0449 3.60251 16.0852 4.03903 15.8382 4.33291C15.6116 4.60229 15.2222 4.6583 14.9302 4.47736L14.8532 4.42212L13.773 3.53211C13.4761 3.2875 13.4358 2.85098 13.6829 2.5571C13.9094 2.28772 14.2988 2.23171 14.5908 2.41265ZM10.0242 0C10.4105 0 10.7236 0.309957 10.7236 0.692308C10.7236 1.0428 10.4605 1.33245 10.1191 1.3783L10.0242 1.38462H5.82804C5.44179 1.38462 5.12868 1.07466 5.12868 0.692308C5.12868 0.341819 5.39178 0.0521622 5.73314 0.00632L5.82804 0H10.0242Z" fill="white"/>
</svg>
